
{"glyphs":{"0":{"ha":939,"x_min":97,"x_max":842,"o":"m 471 175 q 607 239 569 175 q 646 465 646 303 q 607 691 646 626 q 471 755 568 755 q 332 691 370 755 q 293 465 293 627 q 331 239 293 302 q 471 175 370 175 m 97 465 q 121 654 97 566 q 191 808 145 741 q 308 913 236 875 q 471 951 380 951 q 631 913 559 951 q 748 808 702 875 q 818 654 793 741 q 842 465 842 566 q 818 276 842 363 q 748 121 793 188 q 631 17 702 55 q 471 -21 559 -21 q 265 45 351 -21 q 138 219 179 111 q 97 465 97 328 z "},"1":{"ha":472,"x_min":139,"x_max":334,"o":"m 139 947 l 334 947 l 334 0 l 139 0 l 139 947 z "},"2":{"ha":883,"x_min":90,"x_max":800,"o":"m 790 0 l 90 0 q 105 156 90 84 q 144 279 119 228 q 202 373 169 330 q 272 445 235 416 q 348 499 309 474 q 424 540 387 524 q 494 574 461 557 q 552 605 527 591 q 591 640 576 620 q 606 682 606 659 q 563 745 604 724 q 467 766 522 766 q 371 759 414 766 q 293 735 328 751 q 236 706 257 718 q 182 668 215 693 q 135 635 149 644 l 135 872 q 467 961 269 961 q 583 942 525 961 q 689 888 641 922 q 769 800 738 854 q 800 682 800 746 q 785 597 800 637 q 743 529 769 558 q 682 474 716 500 q 610 427 648 448 q 535 387 572 406 q 463 347 497 367 q 402 304 429 326 q 360 254 376 282 q 345 195 345 227 l 790 195 l 790 0 z "},"3":{"ha":842,"x_min":83,"x_max":745,"o":"m 118 914 q 346 953 230 953 q 502 929 431 953 q 614 868 572 906 q 680 788 657 831 q 703 701 703 745 q 692 643 703 669 q 661 594 682 616 q 621 558 639 572 q 572 524 604 545 q 562 517 566 519 q 617 487 596 499 q 665 454 637 475 q 707 412 692 433 q 733 363 722 392 q 745 300 745 334 q 718 180 745 237 q 642 81 691 124 q 517 14 593 39 q 351 -11 442 -11 q 83 26 192 -11 l 83 239 q 150 209 127 218 q 226 192 174 200 q 351 183 279 183 q 506 212 462 183 q 550 300 550 240 q 485 377 550 347 q 294 407 419 407 l 294 602 q 457 629 406 602 q 509 701 509 657 q 346 758 509 758 q 286 755 313 758 q 231 744 258 752 q 191 732 204 736 q 151 716 178 728 q 118 703 123 705 l 118 914 z "},"4":{"ha":905,"x_min":83,"x_max":822,"o":"m 314 386 l 521 386 l 521 677 l 314 386 m 83 189 l 83 386 l 488 947 l 715 947 l 715 386 l 822 386 l 822 189 l 715 189 l 715 0 l 521 0 l 521 189 l 83 189 z "},"5":{"ha":730,"x_min":83,"x_max":745,"o":"m 142 642 l 142 947 l 631 947 l 631 753 l 336 753 l 336 632 q 745 313 745 583 q 718 188 745 247 q 643 83 692 128 q 518 11 594 37 q 351 -16 443 -16 q 83 26 191 -16 l 83 241 q 134 216 119 222 q 182 198 149 209 q 255 183 215 186 q 351 179 295 179 q 505 212 460 179 q 550 313 550 245 q 534 363 550 341 q 487 399 518 385 q 420 423 456 414 q 334 438 385 433 q 240 445 284 443 q 140 447 197 446 l 142 642 z "},"6":{"ha":899,"x_min":83,"x_max":815,"o":"m 98 249 q 91 278 98 249 q 83 374 83 306 q 97 504 83 441 q 132 618 110 567 q 188 719 153 669 q 256 807 222 769 q 336 887 290 846 q 422 957 383 928 q 511 1021 460 985 l 623 860 q 376 653 449 743 q 465 661 420 661 q 553 653 509 661 q 635 627 596 644 q 707 582 673 610 q 764 517 740 554 q 802 431 788 481 q 815 322 815 380 q 764 151 815 228 q 631 31 713 73 q 454 -12 549 -12 q 396 -8 426 -12 q 328 7 366 -4 q 257 36 291 18 q 192 84 224 54 q 136 154 159 115 q 98 249 112 193 m 278 374 q 288 289 278 325 q 314 233 298 253 q 354 200 330 212 q 401 185 378 189 q 454 182 425 182 q 577 218 533 182 q 621 322 621 255 q 537 473 621 433 q 392 481 473 504 q 292 418 321 463 q 278 374 278 397 z "},"7":{"ha":791,"x_min":83,"x_max":701,"o":"m 701 947 l 321 0 l 113 0 l 414 750 l 83 750 l 83 947 l 701 947 z "},"8":{"ha":899,"x_min":83,"x_max":815,"o":"m 452 174 q 575 213 532 174 q 619 319 619 252 q 575 425 619 386 q 452 464 531 464 q 324 426 368 464 q 279 319 279 388 q 323 213 279 252 q 452 174 368 174 m 83 307 q 118 436 83 376 q 220 538 153 496 q 142 703 142 604 q 184 840 142 778 q 298 938 227 903 q 452 972 370 972 q 602 938 532 972 q 714 840 672 903 q 757 703 757 778 q 681 539 757 604 q 815 307 815 452 q 765 145 815 219 q 631 31 714 72 q 452 -11 547 -11 q 270 31 354 -11 q 134 145 185 72 q 83 307 83 219 m 339 699 q 366 627 339 650 q 452 603 393 603 q 534 627 508 603 q 559 699 559 650 q 452 791 559 791 q 366 768 393 791 q 339 699 339 745 z "},"9":{"ha":837,"x_min":83,"x_max":770,"o":"m 754 714 q 760 686 757 704 q 770 589 770 643 q 739 388 770 481 q 648 221 707 296 q 514 87 588 146 q 342 -26 440 28 l 248 143 q 507 354 435 249 q 389 337 448 338 q 275 355 330 336 q 177 408 220 373 q 109 501 134 442 q 83 636 83 560 q 131 797 83 724 q 257 910 179 869 q 422 950 334 950 q 476 946 448 950 q 538 933 504 942 q 603 906 572 924 q 664 863 635 888 q 717 799 693 838 q 754 714 741 761 m 278 636 q 347 517 278 549 q 471 515 402 492 q 560 587 535 537 q 567 664 578 623 q 544 712 559 693 q 509 740 530 731 q 469 752 488 749 q 422 755 449 755 q 315 725 353 755 q 278 636 278 694 z "}," ":{"ha":504,"x_min":0,"x_max":0,"o":""},"!":{"ha":500,"x_min":139,"x_max":361,"o":"m 250 -11 q 172 23 205 -11 q 139 104 139 56 q 172 179 139 148 q 250 211 205 211 q 329 180 297 211 q 361 104 361 149 q 329 22 361 56 q 250 -11 297 -11 m 157 283 l 157 972 l 351 972 l 351 283 l 157 283 z "},"\"":{"ha":586,"x_min":83,"x_max":503,"o":"m 342 676 l 342 972 l 503 972 l 503 676 l 342 676 m 83 676 l 83 972 l 244 972 l 244 676 l 83 676 z "},"#":{"ha":991,"x_min":83,"x_max":909,"o":"m 686 -11 l 486 -11 l 532 207 l 350 207 l 304 -9 l 104 -9 l 150 207 l 83 207 l 83 401 l 191 401 l 221 545 l 83 545 l 83 739 l 262 739 l 311 972 l 511 972 l 463 739 l 644 739 l 693 971 l 893 971 l 844 739 l 909 739 l 909 545 l 803 545 l 774 401 l 909 401 l 909 207 l 732 207 l 686 -11 m 390 401 l 574 401 l 603 545 l 421 545 l 390 401 z "},"$":{"ha":900,"x_min":79,"x_max":841,"o":"m 92 332 q 207 238 136 277 q 355 183 278 200 l 355 421 q 272 453 308 437 q 197 493 236 469 q 134 546 159 517 q 94 614 110 574 q 79 703 79 654 q 103 819 80 768 q 166 904 126 871 q 253 957 206 937 q 355 986 300 977 l 355 1072 l 550 1072 l 550 983 q 760 907 654 963 l 760 673 q 550 785 643 756 l 550 558 q 636 525 600 541 q 714 484 673 509 q 781 429 755 458 q 824 357 807 399 q 840 264 841 315 q 550 -14 837 24 l 550 -94 l 355 -94 l 355 -12 q 92 82 213 10 l 92 332 m 273 701 q 355 621 271 653 l 355 791 q 294 762 315 783 q 273 701 274 740 m 550 179 q 646 265 644 197 q 550 357 648 319 l 550 179 z "},"%":{"ha":1197,"x_min":41,"x_max":1154,"o":"m 204 730 q 292 642 204 642 q 379 730 379 642 q 292 817 379 817 q 204 730 204 817 m 41 730 q 115 906 41 832 q 292 979 188 979 q 469 906 395 979 q 542 730 542 832 q 469 553 542 627 q 292 479 395 479 q 115 553 188 479 q 41 730 41 627 m 138 0 l 822 974 l 1065 974 l 380 0 l 138 0 m 654 227 q 728 401 654 328 q 905 475 801 475 q 1081 401 1008 475 q 1154 227 1154 328 q 1081 49 1154 123 q 905 -25 1008 -25 q 728 49 801 -25 q 654 227 654 123 m 817 227 q 905 138 817 138 q 991 227 991 138 q 905 313 991 313 q 838 292 860 313 q 817 227 817 271 z "},"&":{"ha":1027,"x_min":81,"x_max":986,"o":"m 935 479 q 781 237 878 357 q 862 143 785 233 q 986 -1 939 54 l 729 -1 l 640 100 q 513 20 576 49 q 386 -16 450 -9 q 262 6 322 -22 q 153 98 201 35 q 104 179 121 140 q 84 253 87 219 q 91 320 81 287 q 118 381 101 353 q 162 436 135 408 q 217 487 189 465 q 281 533 245 509 q 222 713 222 627 q 319 916 222 843 q 506 975 397 977 q 683 915 612 975 q 753 717 768 842 q 750 700 751 709 q 570 476 727 583 l 652 383 q 714 479 681 422 l 935 479 m 304 218 q 362 181 328 188 q 436 190 397 175 q 518 239 475 205 q 401 372 461 305 q 302 292 329 326 q 304 218 276 257 m 416 713 q 444 632 416 677 q 559 729 551 694 q 534 802 570 781 q 467 802 503 819 q 417 726 422 780 q 416 713 416 720 z "},"'":{"ha":328,"x_min":83,"x_max":244,"o":"m 83 676 l 83 972 l 244 972 l 244 676 l 83 676 z "},"(":{"ha":536,"x_min":83,"x_max":453,"o":"m 297 -117 q 146 161 208 1 q 83 486 83 321 q 146 812 83 652 q 297 1089 208 972 l 453 972 q 328 746 377 872 q 278 486 278 619 q 328 227 278 353 q 453 0 377 100 l 297 -117 z "},")":{"ha":536,"x_min":83,"x_max":453,"o":"m 83 0 q 209 228 159 102 q 258 486 258 354 q 209 745 258 618 q 83 972 159 871 l 239 1089 q 390 811 328 970 q 453 486 453 651 q 390 162 453 321 q 239 -117 328 2 l 83 0 z "},"*":{"ha":694,"x_min":82,"x_max":611,"o":"m 326 746 l 277 974 l 414 974 l 367 746 l 542 901 l 611 782 l 389 710 l 611 636 l 543 515 l 370 672 l 416 443 l 277 443 l 326 671 l 153 515 l 83 635 l 304 707 l 82 779 l 153 903 l 326 746 z "},"+":{"ha":861,"x_min":139,"x_max":722,"o":"m 722 554 l 722 359 l 528 359 l 528 165 l 334 165 l 334 359 l 139 359 l 139 554 l 334 554 l 334 749 l 528 749 l 528 554 l 722 554 z "},",":{"ha":395,"x_min":41,"x_max":313,"o":"m 41 -47 q 85 9 69 -19 q 109 74 102 37 q 117 135 115 110 q 118 211 118 160 l 313 211 q 312 152 313 172 q 308 92 311 132 q 297 23 305 52 q 274 -43 288 -6 q 236 -116 260 -81 q 180 -183 212 -151 l 41 -47 z "},"-":{"ha":500,"x_min":83,"x_max":416,"o":"m 83 525 l 416 525 l 416 328 l 83 328 l 83 525 z "},".":{"ha":389,"x_min":83,"x_max":306,"o":"m 195 -11 q 116 23 149 -11 q 83 104 83 56 q 117 179 83 148 q 195 211 150 211 q 274 180 241 211 q 306 104 306 149 q 274 22 306 56 q 195 -11 241 -11 z "},"/":{"ha":484,"x_min":0,"x_max":485,"o":"m 201 -14 l 0 -14 l 283 982 l 485 982 l 201 -14 z "},":":{"ha":389,"x_min":83,"x_max":306,"o":"m 195 -11 q 116 23 149 -11 q 83 104 83 56 q 117 179 83 148 q 195 211 150 211 q 274 180 241 211 q 306 104 306 149 q 274 22 306 56 q 195 -11 241 -11 m 83 593 q 117 669 83 636 q 195 701 150 701 q 273 669 241 701 q 306 593 306 637 q 274 512 306 544 q 195 479 241 479 q 116 512 149 479 q 83 593 83 545 z "},";":{"ha":395,"x_min":41,"x_max":313,"o":"m 41 -47 q 85 9 69 -19 q 109 74 102 37 q 117 135 115 110 q 118 211 118 160 l 313 211 q 312 152 313 172 q 308 92 311 132 q 297 23 305 52 q 274 -43 288 -6 q 236 -116 260 -81 q 180 -183 212 -151 l 41 -47 m 83 570 q 117 646 83 614 q 195 677 150 677 q 274 646 241 677 q 306 570 306 614 q 274 488 306 521 q 195 456 241 456 q 116 489 149 456 q 83 570 83 522 z "},"<":{"ha":847,"x_min":83,"x_max":764,"o":"m 764 110 l 83 411 l 83 585 l 764 886 l 764 675 l 364 498 l 764 321 l 764 110 z "},"=":{"ha":823,"x_min":139,"x_max":722,"o":"m 722 684 l 722 489 l 139 489 l 139 684 l 722 684 m 139 197 l 139 392 l 722 392 l 722 197 l 139 197 z "},">":{"ha":847,"x_min":83,"x_max":764,"o":"m 83 110 l 83 321 l 484 498 l 83 675 l 83 886 l 764 585 l 764 411 l 83 110 z "},"?":{"ha":671,"x_min":83,"x_max":592,"o":"m 361 22 q 345 6 361 22 q 282 -11 328 -11 q 203 22 236 -11 q 171 104 171 56 q 204 180 171 149 q 282 211 237 211 q 360 180 328 211 q 393 104 393 149 q 361 22 393 56 m 83 703 l 83 940 q 288 994 181 994 q 425 967 363 994 q 522 898 486 941 q 575 799 558 855 q 586 687 592 743 q 549 574 579 630 q 467 478 519 519 q 425 443 441 458 q 398 410 409 428 q 381 382 387 393 q 373 347 376 371 q 370 309 370 323 q 370 257 370 294 l 175 257 q 180 380 175 346 q 303 593 199 496 q 347 631 323 612 q 406 709 395 669 q 385 774 416 748 q 288 800 353 800 q 197 778 240 800 q 83 703 153 756 z "},"@":{"ha":1543,"x_min":83,"x_max":1467,"o":"m 711 222 q 778 228 753 222 q 824 249 803 233 q 856 293 844 264 q 876 371 867 322 q 878 531 898 486 q 786 586 858 576 q 740 590 759 589 q 704 587 721 590 q 674 575 686 584 q 651 554 662 566 q 632 520 641 541 q 616 473 624 499 q 602 411 609 448 q 603 262 581 302 q 711 222 625 222 m 83 318 q 109 537 83 433 q 180 724 134 641 q 291 875 226 808 q 437 988 357 943 q 611 1057 517 1033 q 807 1082 705 1082 q 956 1070 882 1082 q 1101 1035 1029 1059 q 1233 973 1173 1010 q 1343 884 1293 936 q 1421 765 1392 832 q 1458 615 1450 699 q 1444 432 1467 532 q 1390 270 1426 343 q 1311 150 1355 197 q 1217 71 1267 102 q 1116 32 1166 40 q 1020 30 1065 23 q 936 65 974 37 q 875 135 898 92 q 665 28 786 28 q 571 46 614 28 q 498 96 528 64 q 446 169 469 127 q 415 257 424 210 q 403 353 406 304 q 410 449 400 403 q 551 711 447 623 q 811 779 655 799 q 971 717 899 769 l 981 764 l 1181 764 l 1053 248 q 1064 182 1040 201 q 1126 191 1088 162 q 1235 397 1191 241 l 1253 471 q 1264 592 1268 537 q 1243 689 1259 646 q 1195 765 1227 732 q 1123 822 1163 798 q 1031 860 1083 845 q 925 881 980 874 q 807 888 869 888 q 589 850 686 888 q 422 742 492 813 q 316 563 353 671 q 278 318 278 455 q 290 216 278 267 q 334 109 301 165 q 416 8 366 52 q 552 -63 467 -35 q 746 -92 637 -92 q 961 -77 884 -92 q 1139 -8 1038 -63 l 1385 -8 q 1320 -111 1377 -60 q 1176 -200 1263 -162 q 975 -262 1088 -239 q 746 -286 861 -286 q 544 -263 637 -286 q 384 -201 450 -239 q 265 -110 318 -162 q 178 -2 212 -57 q 123 113 145 54 q 92 223 101 173 q 83 318 83 273 z "},"A":{"ha":990,"x_min":28,"x_max":977,"o":"m 977 -1 l 777 -1 l 669 298 l 343 298 l 229 -1 l 28 -1 l 399 972 l 627 972 l 977 -1 m 411 476 l 606 476 l 511 741 l 411 476 z "},"B":{"ha":926,"x_min":74,"x_max":829,"o":"m 74 972 l 400 972 q 684 898 579 972 q 789 696 789 824 q 748 591 789 635 q 654 528 707 548 q 697 510 675 521 q 743 478 719 498 q 786 433 768 458 q 817 371 805 408 q 829 293 829 334 q 800 150 829 208 q 713 59 771 92 q 581 14 655 27 q 403 0 506 0 l 74 0 l 74 972 m 268 154 l 403 154 q 502 157 464 154 q 568 169 540 161 q 610 194 596 177 q 629 234 623 211 q 635 293 635 256 q 631 334 635 315 q 621 366 627 353 q 604 389 615 379 q 583 406 593 399 q 556 416 572 412 q 526 422 539 420 q 492 425 513 424 q 456 425 471 425 q 418 424 441 425 q 379 424 394 424 l 268 424 l 268 154 m 268 585 l 376 585 q 460 586 428 585 q 519 592 493 587 q 559 604 545 597 q 581 625 572 611 q 592 654 590 638 q 595 696 595 670 q 593 740 595 723 q 583 770 591 756 q 563 791 574 785 q 527 803 551 798 q 475 809 503 808 q 400 810 447 810 l 268 810 l 268 585 z "},"C":{"ha":926,"x_min":71,"x_max":843,"o":"m 843 79 q 522 -18 698 -18 q 358 11 433 -18 q 230 90 282 41 q 141 204 178 139 q 87 341 104 270 q 71 486 71 412 q 89 630 71 559 q 148 767 107 701 q 245 882 188 833 q 388 962 303 932 q 572 991 472 991 q 843 913 684 991 l 843 672 q 792 709 824 685 q 743 745 760 733 q 697 771 725 757 q 640 791 670 785 q 572 798 610 798 q 454 782 506 798 q 366 738 401 766 q 308 670 331 710 q 275 585 286 631 q 265 486 265 540 q 280 363 265 418 q 324 266 294 308 q 405 200 354 223 q 522 176 455 176 q 612 185 571 176 q 685 212 652 194 q 740 245 718 229 q 793 287 763 262 q 843 325 824 312 l 843 79 z "},"D":{"ha":943,"x_min":111,"x_max":901,"o":"m 111 0 l 111 972 l 454 972 q 630 938 548 972 q 772 841 711 903 q 867 687 832 779 q 901 484 901 594 q 866 265 901 359 q 769 114 831 171 q 624 28 706 56 q 443 0 542 0 l 111 0 m 306 195 l 443 195 q 644 261 582 195 q 707 484 707 327 q 639 703 707 627 q 454 778 572 778 l 306 778 l 306 195 z "},"E":{"ha":886,"x_min":111,"x_max":831,"o":"m 111 0 l 111 972 l 808 972 l 808 775 l 306 775 l 306 612 l 684 612 l 684 435 l 306 435 l 306 197 l 831 197 l 831 0 l 111 0 z "},"F":{"ha":863,"x_min":111,"x_max":808,"o":"m 111 972 l 808 972 l 808 775 l 306 775 l 306 612 l 684 612 l 684 435 l 306 435 l 306 0 l 111 0 l 111 972 z "},"G":{"ha":1037,"x_min":83,"x_max":955,"o":"m 574 335 l 574 529 l 943 529 q 954 445 953 489 q 948 354 955 400 q 924 262 941 308 q 883 176 907 217 q 823 99 859 134 q 746 38 788 64 q 648 -3 703 12 q 532 -18 593 -18 q 368 11 443 -18 q 241 90 293 41 q 154 204 190 139 q 100 341 117 270 q 83 486 83 412 q 102 632 83 560 q 159 768 120 703 q 252 883 197 833 q 387 962 307 932 q 559 991 466 991 q 732 971 657 991 q 871 892 807 951 l 867 697 q 728 774 802 751 q 559 798 653 798 q 430 774 486 798 q 342 707 375 750 q 294 608 310 663 q 278 486 278 553 q 292 363 278 418 q 336 266 307 308 q 415 200 366 223 q 532 176 465 176 q 749 335 704 176 l 574 335 z "},"H":{"ha":1015,"x_min":111,"x_max":904,"o":"m 111 972 l 306 972 l 306 610 l 710 610 l 710 972 l 904 972 l 904 0 l 710 0 l 710 432 l 306 432 l 306 0 l 111 0 l 111 972 z "},"I":{"ha":416,"x_min":111,"x_max":306,"o":"m 111 972 l 306 972 l 306 0 l 111 0 l 111 972 z "},"J":{"ha":524,"x_min":14,"x_max":419,"o":"m 39 -35 q 111 -43 85 -41 q 161 -41 137 -45 q 195 -30 185 -37 q 214 -2 205 -22 q 223 41 222 17 q 225 107 225 66 l 225 972 l 419 972 l 419 107 q 14 -225 419 -283 l 39 -35 z "},"K":{"ha":986,"x_min":111,"x_max":935,"o":"m 111 972 l 306 972 l 306 606 l 633 972 l 895 972 l 509 542 l 935 0 l 688 0 l 378 395 l 319 329 q 306 317 309 318 l 306 0 l 111 0 l 111 972 z "},"L":{"ha":790,"x_min":111,"x_max":734,"o":"m 111 972 l 306 972 l 306 178 l 734 178 l 734 0 l 111 0 l 111 972 z "},"M":{"ha":1315,"x_min":117,"x_max":1206,"o":"m 117 972 l 335 972 l 663 311 l 983 972 l 1206 972 l 1206 0 l 1008 0 l 1008 614 l 762 109 l 764 107 l 546 107 l 296 612 l 296 0 l 117 0 l 117 972 z "},"N":{"ha":1031,"x_min":109,"x_max":924,"o":"m 340 972 l 743 301 l 743 972 l 921 972 l 921 4 l 924 0 l 692 0 l 290 669 l 290 0 l 111 0 l 111 968 l 109 972 l 340 972 z "},"O":{"ha":1018,"x_min":83,"x_max":953,"o":"m 519 174 q 707 244 655 174 q 758 486 758 314 q 706 727 758 657 q 519 798 654 798 q 330 728 382 798 q 278 486 278 658 q 330 243 278 313 q 519 174 381 174 m 83 486 q 112 683 83 591 q 193 843 140 774 q 331 952 247 912 q 519 991 414 991 q 706 952 623 991 q 843 843 789 912 q 925 683 897 774 q 953 486 953 591 q 925 288 953 380 q 843 127 897 197 q 706 19 789 58 q 519 -21 623 -21 q 331 19 414 -21 q 193 127 247 58 q 112 288 140 197 q 83 486 83 380 z "},"P":{"ha":901,"x_min":111,"x_max":818,"o":"m 111 972 l 412 972 q 708 884 598 972 q 818 647 818 795 q 706 411 818 498 q 401 325 594 325 l 306 325 l 306 0 l 111 0 l 111 972 m 306 521 l 401 521 q 537 535 488 521 q 605 576 586 549 q 624 647 624 602 q 577 745 624 715 q 412 775 531 775 l 306 775 l 306 521 z "},"Q":{"ha":1036,"x_min":83,"x_max":965,"o":"m 519 174 q 705 245 652 174 q 758 486 758 317 q 705 726 758 654 q 519 798 652 798 q 332 726 385 798 q 278 486 278 654 q 332 245 278 317 q 519 174 385 174 m 83 486 q 112 683 83 591 q 193 843 140 774 q 331 952 247 912 q 519 991 414 991 q 706 952 623 991 q 843 843 789 912 q 925 683 897 774 q 953 486 953 591 q 856 146 953 283 l 965 37 l 829 -102 l 707 20 q 519 -21 623 -21 q 331 19 414 -21 q 193 127 247 58 q 112 288 140 197 q 83 486 83 380 z "},"R":{"ha":919,"x_min":111,"x_max":905,"o":"m 111 972 l 386 972 q 655 888 555 972 q 755 663 755 804 q 720 515 755 580 q 616 412 684 451 q 696 333 660 383 q 756 234 732 283 q 820 118 780 185 q 905 0 860 52 l 665 0 q 604 104 633 50 q 558 189 574 157 q 523 252 542 220 q 487 301 503 284 q 447 331 471 317 q 391 350 422 345 q 314 355 359 355 l 306 355 l 306 0 l 111 0 l 111 972 m 306 539 l 376 539 q 522 571 482 539 q 561 663 561 602 q 524 754 561 725 q 386 783 488 783 l 306 783 l 306 539 z "},"S":{"ha":922,"x_min":79,"x_max":841,"o":"m 92 332 q 250 217 151 260 q 441 174 349 175 q 560 182 525 174 q 646 265 644 200 q 627 311 646 290 q 575 347 608 332 q 499 375 542 361 q 409 403 456 389 q 314 435 361 418 q 224 476 267 452 q 149 531 182 500 q 97 605 116 561 q 79 703 79 649 q 104 820 80 768 q 166 904 128 871 q 256 957 205 936 q 358 986 307 978 q 461 994 408 995 q 760 907 608 989 l 760 673 q 460 800 585 797 q 380 797 413 801 q 323 782 348 793 q 286 751 298 770 q 273 701 274 731 q 292 658 273 677 q 343 625 311 639 q 419 598 376 611 q 509 570 462 585 q 604 539 556 556 q 694 497 651 522 q 769 441 736 472 q 822 364 802 410 q 840 264 841 319 q 823 165 840 210 q 782 92 807 121 q 721 41 758 63 q 650 8 685 20 q 574 -11 616 -3 q 503 -19 532 -18 q 441 -21 473 -21 q 266 7 359 -20 q 92 82 172 34 l 92 332 z "},"T":{"ha":844,"x_min":35,"x_max":810,"o":"m 810 972 l 810 778 l 519 778 l 519 0 l 325 0 l 325 778 l 35 778 l 35 972 l 810 972 z "},"U":{"ha":1075,"x_min":111,"x_max":964,"o":"m 770 972 l 964 972 l 964 440 q 853 96 964 212 q 539 -20 743 -20 q 222 96 332 -20 q 111 440 111 212 l 111 972 l 306 972 l 306 440 q 361 236 306 298 q 539 175 416 175 q 714 237 659 175 q 770 440 770 298 l 770 972 z "},"V":{"ha":964,"x_min":12,"x_max":951,"o":"m 741 972 l 951 972 l 579 0 l 363 0 l 12 971 l 222 971 l 473 273 l 741 972 z "},"W":{"ha":1383,"x_min":14,"x_max":1369,"o":"m 272 0 l 14 971 l 211 971 l 390 294 l 587 971 l 782 971 l 986 289 l 1173 971 l 1369 971 l 1105 0 l 876 0 l 686 633 l 501 0 l 272 0 z "},"X":{"ha":983,"x_min":20,"x_max":961,"o":"m 961 0 l 736 0 l 485 349 l 248 0 l 20 0 l 368 509 l 35 971 l 260 971 l 488 656 l 705 972 l 932 972 l 604 493 l 961 0 z "},"Y":{"ha":924,"x_min":14,"x_max":911,"o":"m 557 0 l 363 0 l 363 323 l 14 971 l 235 971 l 468 539 l 707 972 l 911 972 l 557 332 l 557 0 z "},"Z":{"ha":966,"x_min":111,"x_max":856,"o":"m 848 972 l 848 794 l 355 178 l 856 178 l 856 0 l 111 0 l 111 178 l 606 794 l 132 794 l 132 972 l 848 972 z "},"[":{"ha":519,"x_min":83,"x_max":436,"o":"m 436 -20 l 436 -214 l 83 -214 l 83 1185 l 436 1185 l 436 990 l 278 990 l 278 -20 l 436 -20 z "},"\\":{"ha":484,"x_min":0,"x_max":485,"o":"m 283 -14 l 0 982 l 201 982 l 485 -14 l 283 -14 z "},"]":{"ha":519,"x_min":83,"x_max":436,"o":"m 83 -20 l 241 -20 l 241 990 l 83 990 l 83 1185 l 436 1185 l 436 -214 l 83 -214 l 83 -20 z "},"_":{"ha":833,"x_min":83,"x_max":750,"o":"m 83 114 l 750 114 l 750 -83 l 83 -83 l 83 114 z "},"a":{"ha":990,"x_min":28,"x_max":977,"o":"m 977 -1 l 777 -1 l 669 298 l 343 298 l 229 -1 l 28 -1 l 399 972 l 627 972 l 977 -1 m 411 476 l 606 476 l 511 741 l 411 476 z "},"b":{"ha":926,"x_min":74,"x_max":829,"o":"m 74 972 l 400 972 q 684 898 579 972 q 789 696 789 824 q 748 591 789 635 q 654 528 707 548 q 697 510 675 521 q 743 478 719 498 q 786 433 768 458 q 817 371 805 408 q 829 293 829 334 q 800 150 829 208 q 713 59 771 92 q 581 14 655 27 q 403 0 506 0 l 74 0 l 74 972 m 268 154 l 403 154 q 502 157 464 154 q 568 169 540 161 q 610 194 596 177 q 629 234 623 211 q 635 293 635 256 q 631 334 635 315 q 621 366 627 353 q 604 389 615 379 q 583 406 593 399 q 556 416 572 412 q 526 422 539 420 q 492 425 513 424 q 456 425 471 425 q 418 424 441 425 q 379 424 394 424 l 268 424 l 268 154 m 268 585 l 376 585 q 460 586 428 585 q 519 592 493 587 q 559 604 545 597 q 581 625 572 611 q 592 654 590 638 q 595 696 595 670 q 593 740 595 723 q 583 770 591 756 q 563 791 574 785 q 527 803 551 798 q 475 809 503 808 q 400 810 447 810 l 268 810 l 268 585 z "},"c":{"ha":926,"x_min":71,"x_max":843,"o":"m 843 79 q 522 -18 698 -18 q 358 11 433 -18 q 230 90 282 41 q 141 204 178 139 q 87 341 104 270 q 71 486 71 412 q 89 630 71 559 q 148 767 107 701 q 245 882 188 833 q 388 962 303 932 q 572 991 472 991 q 843 913 684 991 l 843 672 q 792 709 824 685 q 743 745 760 733 q 697 771 725 757 q 640 791 670 785 q 572 798 610 798 q 454 782 506 798 q 366 738 401 766 q 308 670 331 710 q 275 585 286 631 q 265 486 265 540 q 280 363 265 418 q 324 266 294 308 q 405 200 354 223 q 522 176 455 176 q 612 185 571 176 q 685 212 652 194 q 740 245 718 229 q 793 287 763 262 q 843 325 824 312 l 843 79 z "},"d":{"ha":943,"x_min":111,"x_max":901,"o":"m 111 0 l 111 972 l 454 972 q 630 938 548 972 q 772 841 711 903 q 867 687 832 779 q 901 484 901 594 q 866 265 901 359 q 769 114 831 171 q 624 28 706 56 q 443 0 542 0 l 111 0 m 306 195 l 443 195 q 644 261 582 195 q 707 484 707 327 q 639 703 707 627 q 454 778 572 778 l 306 778 l 306 195 z "},"e":{"ha":886,"x_min":111,"x_max":831,"o":"m 111 0 l 111 972 l 808 972 l 808 775 l 306 775 l 306 612 l 684 612 l 684 435 l 306 435 l 306 197 l 831 197 l 831 0 l 111 0 z "},"f":{"ha":863,"x_min":111,"x_max":808,"o":"m 111 972 l 808 972 l 808 775 l 306 775 l 306 612 l 684 612 l 684 435 l 306 435 l 306 0 l 111 0 l 111 972 z "},"g":{"ha":1037,"x_min":83,"x_max":955,"o":"m 574 335 l 574 529 l 943 529 q 954 445 953 489 q 948 354 955 400 q 924 262 941 308 q 883 176 907 217 q 823 99 859 134 q 746 38 788 64 q 648 -3 703 12 q 532 -18 593 -18 q 368 11 443 -18 q 241 90 293 41 q 154 204 190 139 q 100 341 117 270 q 83 486 83 412 q 102 632 83 560 q 159 768 120 703 q 252 883 197 833 q 387 962 307 932 q 559 991 466 991 q 732 971 657 991 q 871 892 807 951 l 867 697 q 728 774 802 751 q 559 798 653 798 q 430 774 486 798 q 342 707 375 750 q 294 608 310 663 q 278 486 278 553 q 292 363 278 418 q 336 266 307 308 q 415 200 366 223 q 532 176 465 176 q 749 335 704 176 l 574 335 z "},"h":{"ha":1015,"x_min":111,"x_max":904,"o":"m 111 972 l 306 972 l 306 610 l 710 610 l 710 972 l 904 972 l 904 0 l 710 0 l 710 432 l 306 432 l 306 0 l 111 0 l 111 972 z "},"i":{"ha":416,"x_min":111,"x_max":306,"o":"m 111 972 l 306 972 l 306 0 l 111 0 l 111 972 z "},"j":{"ha":524,"x_min":14,"x_max":419,"o":"m 39 -35 q 111 -43 85 -41 q 161 -41 137 -45 q 195 -30 185 -37 q 214 -2 205 -22 q 223 41 222 17 q 225 107 225 66 l 225 972 l 419 972 l 419 107 q 14 -225 419 -283 l 39 -35 z "},"k":{"ha":986,"x_min":111,"x_max":935,"o":"m 111 972 l 306 972 l 306 606 l 633 972 l 895 972 l 509 542 l 935 0 l 688 0 l 378 395 l 319 329 q 306 317 309 318 l 306 0 l 111 0 l 111 972 z "},"l":{"ha":790,"x_min":111,"x_max":734,"o":"m 111 972 l 306 972 l 306 178 l 734 178 l 734 0 l 111 0 l 111 972 z "},"m":{"ha":1315,"x_min":117,"x_max":1206,"o":"m 117 972 l 335 972 l 663 311 l 983 972 l 1206 972 l 1206 0 l 1008 0 l 1008 614 l 762 109 l 764 107 l 546 107 l 296 612 l 296 0 l 117 0 l 117 972 z "},"n":{"ha":1031,"x_min":109,"x_max":924,"o":"m 340 972 l 743 301 l 743 972 l 921 972 l 921 4 l 924 0 l 692 0 l 290 669 l 290 0 l 111 0 l 111 968 l 109 972 l 340 972 z "},"o":{"ha":1018,"x_min":83,"x_max":953,"o":"m 519 174 q 707 244 655 174 q 758 486 758 314 q 706 727 758 657 q 519 798 654 798 q 330 728 382 798 q 278 486 278 658 q 330 243 278 313 q 519 174 381 174 m 83 486 q 112 683 83 591 q 193 843 140 774 q 331 952 247 912 q 519 991 414 991 q 706 952 623 991 q 843 843 789 912 q 925 683 897 774 q 953 486 953 591 q 925 288 953 380 q 843 127 897 197 q 706 19 789 58 q 519 -21 623 -21 q 331 19 414 -21 q 193 127 247 58 q 112 288 140 197 q 83 486 83 380 z "},"p":{"ha":901,"x_min":111,"x_max":818,"o":"m 111 972 l 412 972 q 708 884 598 972 q 818 647 818 795 q 706 411 818 498 q 401 325 594 325 l 306 325 l 306 0 l 111 0 l 111 972 m 306 521 l 401 521 q 537 535 488 521 q 605 576 586 549 q 624 647 624 602 q 577 745 624 715 q 412 775 531 775 l 306 775 l 306 521 z "},"q":{"ha":1036,"x_min":83,"x_max":965,"o":"m 519 174 q 705 245 652 174 q 758 486 758 317 q 705 726 758 654 q 519 798 652 798 q 332 726 385 798 q 278 486 278 654 q 332 245 278 317 q 519 174 385 174 m 83 486 q 112 683 83 591 q 193 843 140 774 q 331 952 247 912 q 519 991 414 991 q 706 952 623 991 q 843 843 789 912 q 925 683 897 774 q 953 486 953 591 q 856 146 953 283 l 965 37 l 829 -102 l 707 20 q 519 -21 623 -21 q 331 19 414 -21 q 193 127 247 58 q 112 288 140 197 q 83 486 83 380 z "},"r":{"ha":919,"x_min":111,"x_max":905,"o":"m 111 972 l 386 972 q 655 888 555 972 q 755 663 755 804 q 720 515 755 580 q 616 412 684 451 q 696 333 660 383 q 756 234 732 283 q 820 118 780 185 q 905 0 860 52 l 665 0 q 604 104 633 50 q 558 189 574 157 q 523 252 542 220 q 487 301 503 284 q 447 331 471 317 q 391 350 422 345 q 314 355 359 355 l 306 355 l 306 0 l 111 0 l 111 972 m 306 539 l 376 539 q 522 571 482 539 q 561 663 561 602 q 524 754 561 725 q 386 783 488 783 l 306 783 l 306 539 z "},"s":{"ha":922,"x_min":79,"x_max":841,"o":"m 92 332 q 250 217 151 260 q 441 174 349 175 q 560 182 525 174 q 646 265 644 200 q 627 311 646 290 q 575 347 608 332 q 499 375 542 361 q 409 403 456 389 q 314 435 361 418 q 224 476 267 452 q 149 531 182 500 q 97 605 116 561 q 79 703 79 649 q 104 820 80 768 q 166 904 128 871 q 256 957 205 936 q 358 986 307 978 q 461 994 408 995 q 760 907 608 989 l 760 673 q 460 800 585 797 q 380 797 413 801 q 323 782 348 793 q 286 751 298 770 q 273 701 274 731 q 292 658 273 677 q 343 625 311 639 q 419 598 376 611 q 509 570 462 585 q 604 539 556 556 q 694 497 651 522 q 769 441 736 472 q 822 364 802 410 q 840 264 841 319 q 823 165 840 210 q 782 92 807 121 q 721 41 758 63 q 650 8 685 20 q 574 -11 616 -3 q 503 -19 532 -18 q 441 -21 473 -21 q 266 7 359 -20 q 92 82 172 34 l 92 332 z "},"t":{"ha":844,"x_min":35,"x_max":810,"o":"m 810 972 l 810 778 l 519 778 l 519 0 l 325 0 l 325 778 l 35 778 l 35 972 l 810 972 z "},"u":{"ha":1075,"x_min":111,"x_max":964,"o":"m 770 972 l 964 972 l 964 440 q 853 96 964 212 q 539 -20 743 -20 q 222 96 332 -20 q 111 440 111 212 l 111 972 l 306 972 l 306 440 q 361 236 306 298 q 539 175 416 175 q 714 237 659 175 q 770 440 770 298 l 770 972 z "},"v":{"ha":964,"x_min":12,"x_max":951,"o":"m 741 972 l 951 972 l 579 0 l 363 0 l 12 971 l 222 971 l 473 273 l 741 972 z "},"w":{"ha":1383,"x_min":14,"x_max":1369,"o":"m 272 0 l 14 971 l 211 971 l 390 294 l 587 971 l 782 971 l 986 289 l 1173 971 l 1369 971 l 1105 0 l 876 0 l 686 633 l 501 0 l 272 0 z "},"x":{"ha":983,"x_min":20,"x_max":961,"o":"m 961 0 l 736 0 l 485 349 l 248 0 l 20 0 l 368 509 l 35 971 l 260 971 l 488 656 l 705 972 l 932 972 l 604 493 l 961 0 z "},"y":{"ha":924,"x_min":14,"x_max":911,"o":"m 557 0 l 363 0 l 363 323 l 14 971 l 235 971 l 468 539 l 707 972 l 911 972 l 557 332 l 557 0 z "},"z":{"ha":966,"x_min":111,"x_max":856,"o":"m 848 972 l 848 794 l 355 178 l 856 178 l 856 0 l 111 0 l 111 178 l 606 794 l 132 794 l 132 972 l 848 972 z "},"{":{"ha":547,"x_min":83,"x_max":464,"o":"m 464 -163 q 330 -144 382 -163 q 248 -82 277 -126 q 207 21 218 -39 q 196 176 196 81 q 194 260 196 226 q 190 319 193 295 q 182 356 188 342 q 172 376 177 369 q 156 384 166 382 q 137 385 146 385 q 112 382 128 384 q 83 382 96 381 l 83 582 q 155 590 138 582 q 191 665 184 604 q 196 762 196 701 q 203 890 196 838 q 227 987 210 943 q 275 1057 244 1031 q 352 1096 305 1082 q 464 1109 398 1109 l 464 916 q 414 913 420 916 q 393 878 397 908 q 390 762 390 856 q 387 677 390 709 q 375 612 385 645 q 345 552 365 578 q 290 498 324 526 q 343 436 322 471 q 373 357 363 401 q 387 272 383 313 q 390 176 390 231 q 398 50 390 68 q 452 32 406 31 q 464 32 460 32 l 464 -163 z "},"|":{"ha":528,"x_min":167,"x_max":361,"o":"m 167 972 l 361 972 l 361 -278 l 167 -278 l 167 972 z "},"}":{"ha":547,"x_min":83,"x_max":464,"o":"m 83 32 q 136 35 127 32 q 155 77 152 42 q 157 176 157 98 q 160 272 157 231 q 174 357 164 313 q 204 436 184 401 q 257 498 225 471 q 175 606 193 552 q 157 762 157 659 q 157 767 157 764 q 151 895 157 875 q 125 915 145 913 q 99 916 118 916 q 83 916 89 916 l 83 1109 q 196 1096 149 1109 q 273 1057 242 1082 q 320 987 303 1031 q 345 890 338 943 q 351 762 351 838 q 352 713 351 735 q 355 674 353 692 q 359 644 357 656 q 366 621 361 631 q 375 605 372 611 q 387 593 378 598 q 401 587 396 589 q 419 583 406 585 q 438 582 431 582 q 462 582 446 582 q 464 582 463 582 l 464 382 q 435 382 451 381 q 410 385 419 384 q 391 384 401 385 q 376 376 381 382 q 365 356 370 369 q 357 319 359 342 q 353 260 355 295 q 351 176 351 226 q 340 21 351 81 q 300 -82 330 -39 q 218 -144 270 -126 q 83 -163 165 -163 l 83 32 z "},"¡":{"ha":500,"x_min":139,"x_max":361,"o":"m 250 705 q 329 672 297 705 q 361 590 361 639 q 329 515 361 546 q 250 484 297 484 q 172 515 205 484 q 139 590 139 547 q 172 672 139 638 q 250 705 205 705 m 157 -278 l 157 411 l 351 411 l 351 -278 l 157 -278 z "},"¢":{"ha":882,"x_min":28,"x_max":632,"o":"m 606 -4 q 376 -72 502 -72 l 355 -72 l 319 -187 l 134 -129 l 172 -5 q 65 140 102 51 q 28 326 28 230 q 50 467 28 397 q 115 595 73 536 q 225 689 157 653 q 376 725 293 725 l 404 725 l 446 856 l 632 798 l 595 677 l 606 671 l 606 435 q 571 460 597 441 q 533 488 545 479 l 419 125 q 485 148 456 131 q 548 194 513 165 q 606 237 583 222 l 606 -4 m 222 326 q 240 208 222 254 l 342 528 q 252 463 282 515 q 222 326 222 410 z "},"£":{"ha":790,"x_min":53,"x_max":707,"o":"m 707 0 l 90 0 q 132 164 119 75 q 153 376 145 253 l 53 376 l 53 551 l 164 551 q 175 643 169 602 q 193 728 182 684 q 218 805 203 772 q 256 871 233 839 q 308 925 279 903 q 376 964 336 947 q 463 987 415 981 q 571 990 510 993 q 704 972 632 987 l 667 782 q 587 794 623 791 q 523 795 551 797 q 473 787 495 794 q 436 769 452 779 q 409 742 420 760 q 390 707 397 725 q 378 663 382 689 q 372 611 374 636 q 368 551 370 586 l 518 551 l 518 376 l 363 376 q 343 195 355 265 l 707 195 l 707 0 z "},"¤":{"ha":915,"x_min":83,"x_max":832,"o":"m 456 366 q 527 388 505 366 q 550 460 550 410 q 527 531 550 509 q 456 553 505 553 q 384 531 407 553 q 361 460 361 509 q 384 388 361 410 q 456 366 406 366 m 83 222 l 193 334 q 167 460 167 394 q 193 585 167 531 l 85 694 l 221 831 l 330 721 q 456 747 388 747 q 583 721 521 747 l 693 831 l 829 694 l 720 582 q 745 460 745 522 q 720 336 745 396 l 832 222 l 692 86 l 583 197 q 456 171 521 171 q 330 197 388 171 l 224 86 l 83 222 z "},"¥":{"ha":843,"x_min":14,"x_max":911,"o":"m 557 0 l 363 0 l 363 107 l 97 107 l 97 301 l 363 301 l 363 323 l 358 330 l 97 330 l 97 525 l 254 525 l 14 971 l 235 971 l 468 539 l 707 972 l 911 972 l 664 525 l 828 525 l 828 330 l 557 330 l 557 301 l 828 301 l 828 107 l 557 107 l 557 0 z "},"¦":{"ha":528,"x_min":167,"x_max":361,"o":"m 167 972 l 361 972 l 361 486 l 167 486 l 167 972 m 167 -278 l 167 250 l 361 250 l 361 -278 l 167 -278 z "},"§":{"ha":765,"x_min":83,"x_max":682,"o":"m 109 288 q 220 175 143 216 q 363 134 296 134 q 454 142 430 134 q 488 192 488 156 q 458 228 488 208 q 383 267 428 248 q 286 311 338 286 q 188 364 233 337 q 113 427 143 391 q 83 503 83 464 q 105 603 83 556 q 167 679 126 650 q 93 794 93 736 q 172 967 93 903 q 367 1032 251 1032 q 500 1010 428 1032 q 618 958 573 987 l 618 705 q 483 805 540 773 q 367 838 427 838 q 303 829 319 838 q 288 794 288 821 q 327 755 288 778 q 422 708 366 733 q 533 653 477 682 q 629 583 589 623 q 668 500 668 543 q 586 323 668 375 q 682 192 682 257 q 670 107 682 146 q 639 44 659 69 q 592 -1 619 18 q 536 -32 564 -21 q 475 -50 508 -43 q 416 -59 442 -57 q 363 -61 390 -61 q 237 -40 315 -61 q 109 11 160 -18 l 109 288 m 278 503 q 319 458 278 485 q 386 435 357 441 q 431 432 415 429 q 457 442 447 435 q 470 455 467 449 q 473 465 473 461 q 475 482 473 470 q 476 501 477 494 q 470 517 476 508 q 449 533 463 527 q 278 503 278 614 z "},"©":{"ha":1137,"x_min":83,"x_max":1054,"o":"m 717 249 q 558 205 646 205 q 448 228 496 205 q 370 290 399 251 q 325 378 340 330 q 310 481 310 427 q 327 584 310 535 q 377 672 344 633 q 464 734 410 711 q 587 757 518 757 q 652 747 616 757 q 710 722 688 736 l 710 583 q 655 607 690 597 q 587 618 620 618 q 477 589 506 618 q 449 481 449 560 q 471 372 449 399 q 558 345 494 345 q 718 397 629 343 l 717 249 m 83 486 q 122 674 83 585 q 225 829 160 764 q 380 932 290 894 q 568 971 470 971 q 757 932 667 971 q 912 829 847 894 q 1015 674 977 764 q 1054 486 1054 585 q 1015 297 1054 387 q 912 142 977 208 q 757 39 847 77 q 568 0 667 0 q 380 39 470 0 q 225 142 290 77 q 122 297 160 208 q 83 486 83 387 m 240 486 q 328 245 240 334 q 568 157 416 157 q 809 245 720 157 q 897 486 897 334 q 809 726 897 637 q 568 814 720 814 q 328 726 416 814 q 240 486 240 637 z "},"«":{"ha":643,"x_min":83,"x_max":561,"o":"m 561 98 l 300 98 l 83 343 l 83 450 l 300 694 l 561 694 l 297 397 l 561 98 z "},"®":{"ha":682,"x_min":40,"x_max":640,"o":"m 233 844 l 323 844 q 411 817 378 844 q 444 743 444 789 q 399 661 444 688 q 447 598 421 646 q 493 526 473 549 l 415 526 q 388 571 401 547 q 369 606 375 595 q 354 627 363 616 q 332 640 345 637 q 300 643 320 643 l 297 643 l 297 526 l 233 526 l 233 844 m 128 466 q 84 509 128 466 q 40 677 40 553 q 128 890 40 802 q 340 978 216 978 q 552 890 465 978 q 640 677 640 802 q 600 527 640 596 q 490 418 559 458 q 340 378 421 378 q 128 466 216 378 m 115 677 q 179 517 115 581 q 340 453 243 453 q 502 517 437 453 q 566 677 566 581 q 501 839 566 774 q 340 903 437 903 q 180 839 244 903 q 115 677 115 774 m 297 703 l 321 703 q 368 713 355 703 q 380 743 380 724 q 369 773 380 764 q 323 782 357 782 l 297 782 l 297 703 z "},"°":{"ha":667,"x_min":83,"x_max":583,"o":"m 334 642 q 421 730 421 642 q 334 817 421 817 q 245 730 245 817 q 334 642 245 642 m 83 730 q 157 906 83 832 q 334 979 230 979 q 510 906 437 979 q 583 730 583 832 q 510 553 583 627 q 334 479 437 479 q 157 553 230 479 q 83 730 83 627 z "},"±":{"ha":861,"x_min":139,"x_max":722,"o":"m 722 672 l 722 478 l 528 478 l 528 283 l 334 283 l 334 478 l 139 478 l 139 672 l 334 672 l 334 867 l 528 867 l 528 672 l 722 672 m 139 -1 l 139 193 l 722 193 l 722 -1 l 139 -1 z "},"¶":{"ha":883,"x_min":83,"x_max":800,"o":"m 606 972 l 800 972 l 800 -278 l 606 -278 l 606 972 m 83 704 q 161 892 83 813 q 349 972 239 972 l 543 972 l 543 -278 l 349 -278 l 349 436 q 161 516 239 437 q 83 704 83 594 z "},"·":{"ha":777,"x_min":278,"x_max":500,"o":"m 389 376 q 311 410 343 376 q 278 492 278 444 q 311 567 278 535 q 389 599 344 599 q 468 567 435 599 q 500 492 500 536 q 468 410 500 443 q 389 376 435 376 z "},"»":{"ha":1051,"x_min":83,"x_max":968,"o":"m 83 98 l 346 397 l 83 694 l 343 694 l 559 450 l 559 343 l 343 98 l 83 98 m 490 98 l 754 397 l 490 694 l 750 694 l 968 450 l 968 343 l 750 98 l 490 98 z "},"¿":{"ha":671,"x_min":79,"x_max":587,"o":"m 310 703 q 326 719 310 703 q 389 736 342 736 q 467 703 435 736 q 500 621 500 669 q 467 545 500 576 q 389 514 434 514 q 311 545 343 514 q 278 621 278 576 q 310 703 278 669 m 204 248 q 240 278 225 264 q 266 303 255 292 q 283 330 277 315 q 294 354 290 345 q 299 384 298 364 q 301 417 300 404 q 301 459 301 430 q 301 468 301 465 l 496 468 q 490 345 496 378 q 367 131 472 228 q 323 94 347 113 q 265 16 275 56 q 286 -49 254 -23 q 383 -75 317 -75 q 474 -54 431 -75 q 587 21 517 -32 l 587 -215 q 383 -269 492 -269 q 246 -242 307 -269 q 149 -173 185 -216 q 96 -74 113 -130 q 85 39 79 -18 q 122 151 92 96 q 204 248 152 207 z "},"À":{"ha":990,"x_min":28,"x_max":977,"o":"m 977 -1 l 777 -1 l 669 298 l 343 298 l 229 -1 l 28 -1 l 399 972 l 627 972 l 977 -1 m 334 1278 l 562 1278 l 621 1069 l 392 1069 l 334 1278 m 411 476 l 606 476 l 511 741 l 411 476 z "},"Á":{"ha":990,"x_min":28,"x_max":977,"o":"m 977 -1 l 777 -1 l 669 298 l 343 298 l 229 -1 l 28 -1 l 399 972 l 627 972 l 977 -1 m 411 476 l 606 476 l 511 741 l 411 476 m 425 1032 l 486 1261 l 684 1261 l 623 1032 l 425 1032 z "},"Â":{"ha":990,"x_min":28,"x_max":977,"o":"m 977 -1 l 777 -1 l 669 298 l 343 298 l 229 -1 l 28 -1 l 399 972 l 627 972 l 977 -1 m 239 1120 l 458 1296 l 564 1296 l 783 1120 l 675 1013 l 511 1150 l 347 1013 l 239 1120 m 411 476 l 606 476 l 511 741 l 411 476 z "},"Ã":{"ha":990,"x_min":28,"x_max":977,"o":"m 977 -1 l 777 -1 l 669 298 l 343 298 l 229 -1 l 28 -1 l 399 972 l 627 972 l 977 -1 m 241 1071 q 283 1197 241 1139 q 393 1271 324 1254 q 550 1236 461 1288 q 606 1272 606 1202 l 768 1272 q 727 1145 768 1204 q 617 1068 685 1086 q 464 1099 549 1050 q 426 1115 439 1114 q 408 1104 412 1115 q 403 1071 403 1093 l 241 1071 m 411 476 l 606 476 l 511 741 l 411 476 z "},"Ä":{"ha":990,"x_min":28,"x_max":977,"o":"m 977 -1 l 777 -1 l 669 298 l 343 298 l 229 -1 l 28 -1 l 399 972 l 627 972 l 977 -1 m 168 1137 q 201 1214 168 1182 q 279 1246 233 1246 q 357 1214 325 1246 q 390 1137 390 1182 q 358 1056 390 1089 q 279 1023 326 1023 q 201 1056 233 1023 q 168 1137 168 1089 m 411 476 l 606 476 l 511 741 l 411 476 m 635 1137 q 667 1214 635 1182 q 746 1246 700 1246 q 825 1214 792 1246 q 857 1137 857 1182 q 825 1056 857 1089 q 746 1023 792 1023 q 667 1056 700 1023 q 635 1137 635 1089 z "},"Å":{"ha":990,"x_min":28,"x_max":977,"o":"m 977 -1 l 777 -1 l 669 298 l 343 298 l 229 -1 l 28 -1 l 399 972 l 627 972 l 977 -1 m 317 1219 q 374 1356 317 1299 q 511 1413 431 1413 q 647 1356 591 1413 q 704 1219 704 1299 q 647 1083 704 1140 q 511 1026 591 1026 q 374 1083 431 1026 q 317 1219 317 1140 m 411 476 l 606 476 l 511 741 l 411 476 m 440 1219 q 511 1149 440 1149 q 581 1219 581 1149 q 511 1291 581 1291 q 458 1272 477 1291 q 440 1219 440 1254 z "},"Æ":{"ha":1479,"x_min":28,"x_max":1423,"o":"m 704 0 l 704 298 l 342 298 l 228 0 l 28 0 l 399 972 l 1401 972 l 1401 775 l 899 775 l 899 612 l 1276 612 l 1276 435 l 899 435 l 899 197 l 1423 197 l 1423 0 l 704 0 m 410 476 l 704 476 l 704 785 l 528 785 l 410 476 z "},"Ç":{"ha":926,"x_min":71,"x_max":843,"o":"m 843 79 q 599 -14 727 3 q 597 -83 599 -54 q 589 -156 596 -111 q 569 -237 582 -201 q 529 -315 555 -273 q 467 -395 503 -357 l 328 -258 q 371 -202 355 -231 q 394 -139 387 -174 q 402 -78 401 -104 q 404 -4 404 -52 q 257 67 322 17 q 152 185 192 118 q 91 330 112 253 q 71 486 71 406 q 89 630 71 559 q 148 767 107 701 q 245 882 188 833 q 388 962 303 932 q 572 991 472 991 q 843 913 684 991 l 843 672 q 792 709 824 685 q 743 745 760 733 q 697 771 725 757 q 640 791 670 785 q 572 798 610 798 q 454 782 506 798 q 366 738 401 766 q 308 670 331 710 q 275 585 286 631 q 265 486 265 540 q 280 363 265 418 q 324 266 294 308 q 405 200 354 223 q 522 176 455 176 q 612 185 571 176 q 685 212 652 194 q 740 245 718 229 q 793 287 763 262 q 843 325 824 312 l 843 79 z "},"È":{"ha":886,"x_min":111,"x_max":831,"o":"m 111 0 l 111 972 l 808 972 l 808 775 l 306 775 l 306 612 l 684 612 l 684 435 l 306 435 l 306 197 l 831 197 l 831 0 l 111 0 m 285 1278 l 514 1278 l 572 1069 l 343 1069 l 285 1278 z "},"É":{"ha":886,"x_min":111,"x_max":831,"o":"m 111 0 l 111 972 l 808 972 l 808 775 l 306 775 l 306 612 l 684 612 l 684 435 l 306 435 l 306 197 l 831 197 l 831 0 l 111 0 m 382 1032 l 443 1261 l 640 1261 l 579 1032 l 382 1032 z "},"Ê":{"ha":886,"x_min":111,"x_max":831,"o":"m 111 0 l 111 972 l 808 972 l 808 775 l 306 775 l 306 612 l 684 612 l 684 435 l 306 435 l 306 197 l 831 197 l 831 0 l 111 0 m 191 1120 l 410 1296 l 515 1296 l 734 1120 l 627 1013 l 463 1150 l 298 1013 l 191 1120 z "},"Ë":{"ha":886,"x_min":111,"x_max":831,"o":"m 111 0 l 111 972 l 808 972 l 808 775 l 306 775 l 306 612 l 684 612 l 684 435 l 306 435 l 306 197 l 831 197 l 831 0 l 111 0 m 119 1137 q 153 1214 119 1182 q 231 1246 186 1246 q 310 1214 277 1246 q 342 1137 342 1182 q 310 1056 342 1088 q 231 1023 277 1023 q 152 1056 185 1023 q 119 1137 119 1089 m 586 1137 q 619 1214 586 1182 q 697 1246 652 1246 q 776 1214 744 1246 q 808 1137 808 1182 q 776 1056 808 1088 q 697 1023 744 1023 q 619 1056 652 1023 q 586 1137 586 1089 z "},"Ì":{"ha":416,"x_min":31,"x_max":318,"o":"m 111 972 l 306 972 l 306 0 l 111 0 l 111 972 m 31 1278 l 260 1278 l 318 1069 l 89 1069 l 31 1278 z "},"Í":{"ha":416,"x_min":111,"x_max":371,"o":"m 111 972 l 306 972 l 306 0 l 111 0 l 111 972 m 113 1032 l 174 1261 l 371 1261 l 310 1032 l 113 1032 z "},"Î":{"ha":416,"x_min":-65,"x_max":479,"o":"m 111 972 l 306 972 l 306 0 l 111 0 l 111 972 m -65 1120 l 154 1296 l 260 1296 l 479 1120 l 371 1013 l 207 1150 l 43 1013 l -65 1120 z "},"Ï":{"ha":416,"x_min":-31,"x_max":453,"o":"m 111 972 l 306 972 l 306 0 l 111 0 l 111 972 m -31 1165 q 2 1242 -31 1210 q 81 1274 35 1274 q 159 1242 127 1274 q 192 1165 192 1210 q 159 1084 192 1117 q 81 1051 127 1051 q 2 1084 35 1051 q -31 1165 -31 1117 m 231 1165 q 264 1242 231 1210 q 342 1274 297 1274 q 421 1242 389 1274 q 453 1165 453 1210 q 421 1084 453 1116 q 342 1051 389 1051 q 263 1084 296 1051 q 231 1165 231 1117 z "},"Ð":{"ha":943,"x_min":-3,"x_max":901,"o":"m 111 0 l 111 397 l -3 397 l -3 575 l 111 575 l 111 972 l 454 972 q 630 938 548 972 q 772 841 711 903 q 867 687 832 779 q 901 484 901 594 q 866 265 901 359 q 769 114 831 171 q 624 28 706 56 q 443 0 542 0 l 111 0 m 306 195 l 443 195 q 644 261 582 195 q 707 484 707 327 q 639 703 707 627 q 454 778 572 778 l 306 778 l 306 575 l 551 575 l 551 397 l 306 397 l 306 195 z "},"Ñ":{"ha":1031,"x_min":109,"x_max":924,"o":"m 340 972 l 743 301 l 743 972 l 921 972 l 921 4 l 924 0 l 692 0 l 290 669 l 290 0 l 111 0 l 111 968 l 109 972 l 340 972 m 245 1071 q 287 1197 245 1139 q 397 1271 328 1254 q 554 1236 465 1288 q 610 1272 610 1202 l 772 1272 q 731 1145 772 1204 q 621 1068 689 1086 q 468 1099 553 1050 q 430 1115 444 1114 q 412 1104 416 1115 q 407 1071 407 1093 l 245 1071 z "},"Ò":{"ha":1018,"x_min":83,"x_max":953,"o":"m 519 174 q 707 244 655 174 q 758 486 758 314 q 706 727 758 657 q 519 798 654 798 q 330 728 382 798 q 278 486 278 658 q 330 243 278 313 q 519 174 381 174 m 83 486 q 112 683 83 591 q 193 843 140 774 q 331 952 247 912 q 519 991 414 991 q 706 952 623 991 q 843 843 789 912 q 925 683 897 774 q 953 486 953 591 q 925 288 953 380 q 843 127 897 197 q 706 19 789 58 q 519 -21 623 -21 q 331 19 414 -21 q 193 127 247 58 q 112 288 140 197 q 83 486 83 380 m 330 1278 l 559 1278 l 618 1069 l 389 1069 l 330 1278 z "},"Ó":{"ha":1018,"x_min":83,"x_max":953,"o":"m 519 174 q 707 244 655 174 q 758 486 758 314 q 706 727 758 657 q 519 798 654 798 q 330 728 382 798 q 278 486 278 658 q 330 243 278 313 q 519 174 381 174 m 83 486 q 112 683 83 591 q 193 843 140 774 q 331 952 247 912 q 519 991 414 991 q 706 952 623 991 q 843 843 789 912 q 925 683 897 774 q 953 486 953 591 q 925 288 953 380 q 843 127 897 197 q 706 19 789 58 q 519 -21 623 -21 q 331 19 414 -21 q 193 127 247 58 q 112 288 140 197 q 83 486 83 380 m 428 1032 l 489 1261 l 686 1261 l 625 1032 l 428 1032 z "},"Ô":{"ha":1018,"x_min":83,"x_max":953,"o":"m 519 174 q 707 244 655 174 q 758 486 758 314 q 706 727 758 657 q 519 798 654 798 q 330 728 382 798 q 278 486 278 658 q 330 243 278 313 q 519 174 381 174 m 83 486 q 112 683 83 591 q 193 843 140 774 q 331 952 247 912 q 519 991 414 991 q 706 952 623 991 q 843 843 789 912 q 925 683 897 774 q 953 486 953 591 q 925 288 953 380 q 843 127 897 197 q 706 19 789 58 q 519 -21 623 -21 q 331 19 414 -21 q 193 127 247 58 q 112 288 140 197 q 83 486 83 380 m 236 1158 l 456 1335 l 559 1335 l 781 1158 l 672 1051 l 509 1190 l 345 1051 l 236 1158 z "},"Õ":{"ha":1018,"x_min":83,"x_max":953,"o":"m 519 174 q 707 244 655 174 q 758 486 758 314 q 706 727 758 657 q 519 798 654 798 q 330 728 382 798 q 278 486 278 658 q 330 243 278 313 q 519 174 381 174 m 83 486 q 112 683 83 591 q 193 843 140 774 q 331 952 247 912 q 519 991 414 991 q 706 952 623 991 q 843 843 789 912 q 925 683 897 774 q 953 486 953 591 q 925 288 953 380 q 843 127 897 197 q 706 19 789 58 q 519 -21 623 -21 q 331 19 414 -21 q 193 127 247 58 q 112 288 140 197 q 83 486 83 380 m 239 1071 q 280 1197 239 1139 q 390 1271 321 1254 q 547 1236 458 1288 q 603 1272 603 1202 l 765 1272 q 723 1145 765 1204 q 614 1068 682 1086 q 461 1099 547 1050 q 423 1115 437 1114 q 405 1104 410 1115 q 400 1071 400 1093 l 239 1071 z "},"Ö":{"ha":1018,"x_min":83,"x_max":953,"o":"m 519 174 q 707 244 655 174 q 758 486 758 314 q 706 727 758 657 q 519 798 654 798 q 330 728 382 798 q 278 486 278 658 q 330 243 278 313 q 519 174 381 174 m 83 486 q 112 683 83 591 q 193 843 140 774 q 331 952 247 912 q 519 991 414 991 q 706 952 623 991 q 843 843 789 912 q 925 683 897 774 q 953 486 953 591 q 925 288 953 380 q 843 127 897 197 q 706 19 789 58 q 519 -21 623 -21 q 331 19 414 -21 q 193 127 247 58 q 112 288 140 197 q 83 486 83 380 m 164 1137 q 197 1214 164 1182 q 275 1246 231 1246 q 354 1214 322 1246 q 386 1137 386 1182 q 354 1056 386 1088 q 275 1023 322 1023 q 197 1056 230 1023 q 164 1137 164 1089 m 631 1137 q 664 1214 631 1182 q 742 1246 697 1246 q 821 1214 789 1246 q 852 1137 852 1182 q 821 1056 852 1088 q 742 1023 789 1023 q 664 1056 696 1023 q 631 1137 631 1089 z "},"×":{"ha":871,"x_min":155,"x_max":705,"o":"m 705 319 l 568 183 l 431 321 l 293 183 l 155 319 l 293 457 l 155 596 l 293 732 l 431 595 l 568 732 l 705 596 l 568 457 l 705 319 z "},"Ø":{"ha":1018,"x_min":81,"x_max":953,"o":"m 519 174 q 707 244 655 174 q 758 486 758 314 q 726 694 758 625 l 421 184 q 519 174 466 174 m 81 -39 l 186 138 q 83 486 83 274 q 112 683 83 591 q 193 843 140 774 q 331 952 247 912 q 519 991 414 991 q 677 964 608 991 l 704 1007 l 913 1007 l 827 863 q 921 696 888 793 q 953 486 953 599 q 925 288 953 380 q 843 127 897 197 q 706 19 789 58 q 519 -21 623 -21 q 323 22 410 -21 l 288 -39 l 81 -39 m 278 486 q 294 319 278 379 l 576 794 q 519 798 534 798 q 330 728 382 798 q 278 486 278 658 z "},"Ù":{"ha":1075,"x_min":111,"x_max":964,"o":"m 770 972 l 964 972 l 964 440 q 853 96 964 212 q 539 -20 743 -20 q 222 96 332 -20 q 111 440 111 212 l 111 972 l 306 972 l 306 440 q 361 236 306 298 q 539 175 416 175 q 714 237 659 175 q 770 440 770 298 l 770 972 m 359 1278 l 589 1278 l 647 1069 l 418 1069 l 359 1278 z "},"Ú":{"ha":1075,"x_min":111,"x_max":964,"o":"m 770 972 l 964 972 l 964 440 q 853 96 964 212 q 539 -20 743 -20 q 222 96 332 -20 q 111 440 111 212 l 111 972 l 306 972 l 306 440 q 361 236 306 298 q 539 175 416 175 q 714 237 659 175 q 770 440 770 298 l 770 972 m 457 1032 l 518 1261 l 715 1261 l 654 1032 l 457 1032 z "},"Û":{"ha":1075,"x_min":111,"x_max":964,"o":"m 770 972 l 964 972 l 964 440 q 853 96 964 212 q 539 -20 743 -20 q 222 96 332 -20 q 111 440 111 212 l 111 972 l 306 972 l 306 440 q 361 236 306 298 q 539 175 416 175 q 714 237 659 175 q 770 440 770 298 l 770 972 m 264 1120 l 484 1296 l 589 1296 l 808 1120 l 700 1013 l 536 1150 l 372 1013 l 264 1120 z "},"Ü":{"ha":1075,"x_min":111,"x_max":964,"o":"m 770 972 l 964 972 l 964 440 q 853 96 964 212 q 539 -20 743 -20 q 222 96 332 -20 q 111 440 111 212 l 111 972 l 306 972 l 306 440 q 361 236 306 298 q 539 175 416 175 q 714 237 659 175 q 770 440 770 298 l 770 972 m 193 1137 q 227 1214 193 1182 q 304 1246 260 1246 q 383 1214 351 1246 q 415 1137 415 1182 q 383 1056 415 1088 q 304 1023 351 1023 q 226 1056 259 1023 q 193 1137 193 1089 m 660 1137 q 693 1214 660 1182 q 771 1246 726 1246 q 850 1214 818 1246 q 882 1137 882 1182 q 850 1056 882 1088 q 771 1023 818 1023 q 693 1056 726 1023 q 660 1137 660 1089 z "},"Ý":{"ha":924,"x_min":14,"x_max":911,"o":"m 557 0 l 363 0 l 363 323 l 14 971 l 235 971 l 468 539 l 707 972 l 911 972 l 557 332 l 557 0 m 383 1032 l 444 1261 l 642 1261 l 581 1032 l 383 1032 z "},"Þ":{"ha":901,"x_min":111,"x_max":818,"o":"m 111 972 l 306 972 l 306 832 l 412 832 q 708 744 599 832 q 818 507 818 656 q 706 271 818 358 q 401 184 594 184 l 306 184 l 306 0 l 111 0 l 111 972 m 306 380 l 401 380 q 537 395 488 380 q 605 436 586 409 q 624 507 624 463 q 578 605 624 576 q 412 635 532 635 l 306 635 l 306 380 z "},"à":{"ha":990,"x_min":28,"x_max":977,"o":"m 977 -1 l 777 -1 l 669 298 l 343 298 l 229 -1 l 28 -1 l 399 972 l 627 972 l 977 -1 m 334 1278 l 562 1278 l 621 1069 l 392 1069 l 334 1278 m 411 476 l 606 476 l 511 741 l 411 476 z "},"á":{"ha":990,"x_min":28,"x_max":977,"o":"m 977 -1 l 777 -1 l 669 298 l 343 298 l 229 -1 l 28 -1 l 399 972 l 627 972 l 977 -1 m 411 476 l 606 476 l 511 741 l 411 476 m 431 1032 l 492 1261 l 689 1261 l 628 1032 l 431 1032 z "},"â":{"ha":990,"x_min":28,"x_max":977,"o":"m 977 -1 l 777 -1 l 669 298 l 343 298 l 229 -1 l 28 -1 l 399 972 l 627 972 l 977 -1 m 239 1120 l 458 1296 l 564 1296 l 783 1120 l 675 1013 l 511 1150 l 347 1013 l 239 1120 m 411 476 l 606 476 l 511 741 l 411 476 z "},"ã":{"ha":990,"x_min":28,"x_max":977,"o":"m 977 -1 l 777 -1 l 669 298 l 343 298 l 229 -1 l 28 -1 l 399 972 l 627 972 l 977 -1 m 241 1071 q 283 1197 241 1139 q 393 1271 324 1254 q 550 1236 461 1288 q 606 1272 606 1202 l 768 1272 q 727 1145 768 1204 q 617 1068 685 1086 q 464 1099 549 1050 q 426 1115 439 1114 q 408 1104 412 1115 q 403 1071 403 1093 l 241 1071 m 411 476 l 606 476 l 511 741 l 411 476 z "},"ä":{"ha":990,"x_min":28,"x_max":977,"o":"m 977 -1 l 777 -1 l 669 298 l 343 298 l 229 -1 l 28 -1 l 399 972 l 627 972 l 977 -1 m 168 1137 q 201 1214 168 1182 q 279 1246 235 1246 q 358 1214 326 1246 q 390 1137 390 1182 q 358 1056 390 1088 q 279 1023 326 1023 q 201 1056 234 1023 q 168 1137 168 1089 m 411 476 l 606 476 l 511 741 l 411 476 m 635 1137 q 668 1214 635 1182 q 746 1246 701 1246 q 825 1214 793 1246 q 857 1137 857 1182 q 825 1056 857 1088 q 746 1023 793 1023 q 668 1056 701 1023 q 635 1137 635 1089 z "},"å":{"ha":990,"x_min":28,"x_max":977,"o":"m 977 -1 l 777 -1 l 669 298 l 343 298 l 229 -1 l 28 -1 l 399 972 l 627 972 l 977 -1 m 374 1083 q 345 1112 374 1083 q 317 1219 317 1140 q 374 1356 317 1299 q 510 1413 431 1413 q 647 1356 590 1413 q 704 1219 704 1299 q 647 1083 704 1140 q 510 1026 590 1026 q 374 1083 431 1026 m 411 476 l 606 476 l 511 741 l 411 476 m 440 1219 q 510 1149 440 1149 q 581 1219 581 1149 q 510 1291 581 1291 q 440 1219 440 1291 z "},"æ":{"ha":1479,"x_min":28,"x_max":1423,"o":"m 704 0 l 704 298 l 342 298 l 228 0 l 28 0 l 399 972 l 1401 972 l 1401 775 l 899 775 l 899 612 l 1276 612 l 1276 435 l 899 435 l 899 197 l 1423 197 l 1423 0 l 704 0 m 410 476 l 704 476 l 704 785 l 528 785 l 410 476 z "},"ç":{"ha":926,"x_min":71,"x_max":843,"o":"m 843 79 q 599 -14 727 3 q 597 -83 599 -54 q 589 -156 596 -111 q 569 -237 582 -201 q 529 -315 555 -273 q 467 -395 503 -357 l 328 -258 q 371 -202 355 -231 q 394 -139 387 -174 q 402 -78 401 -104 q 404 -4 404 -52 q 257 67 322 17 q 152 185 192 118 q 91 330 112 253 q 71 486 71 406 q 89 630 71 559 q 148 767 107 701 q 245 882 188 833 q 388 962 303 932 q 572 991 472 991 q 843 913 684 991 l 843 672 q 792 709 824 685 q 743 745 760 733 q 697 771 725 757 q 640 791 670 785 q 572 798 610 798 q 454 782 506 798 q 366 738 401 766 q 308 670 331 710 q 275 585 286 631 q 265 486 265 540 q 280 363 265 418 q 324 266 294 308 q 405 200 354 223 q 522 176 455 176 q 612 185 571 176 q 685 212 652 194 q 740 245 718 229 q 793 287 763 262 q 843 325 824 312 l 843 79 z "},"è":{"ha":886,"x_min":111,"x_max":831,"o":"m 111 0 l 111 972 l 808 972 l 808 775 l 306 775 l 306 612 l 684 612 l 684 435 l 306 435 l 306 197 l 831 197 l 831 0 l 111 0 m 285 1278 l 514 1278 l 572 1069 l 343 1069 l 285 1278 z "},"é":{"ha":886,"x_min":111,"x_max":831,"o":"m 111 0 l 111 972 l 808 972 l 808 775 l 306 775 l 306 612 l 684 612 l 684 435 l 306 435 l 306 197 l 831 197 l 831 0 l 111 0 m 382 1032 l 443 1261 l 640 1261 l 579 1032 l 382 1032 z "},"ê":{"ha":886,"x_min":111,"x_max":831,"o":"m 111 0 l 111 972 l 808 972 l 808 775 l 306 775 l 306 612 l 684 612 l 684 435 l 306 435 l 306 197 l 831 197 l 831 0 l 111 0 m 191 1120 l 410 1296 l 515 1296 l 734 1120 l 627 1013 l 463 1150 l 298 1013 l 191 1120 z "},"ë":{"ha":886,"x_min":111,"x_max":831,"o":"m 111 0 l 111 972 l 808 972 l 808 775 l 306 775 l 306 612 l 684 612 l 684 435 l 306 435 l 306 197 l 831 197 l 831 0 l 111 0 m 119 1137 q 153 1214 119 1182 q 231 1246 186 1246 q 310 1214 277 1246 q 342 1137 342 1182 q 310 1056 342 1088 q 231 1023 277 1023 q 152 1056 185 1023 q 119 1137 119 1089 m 586 1137 q 619 1214 586 1182 q 697 1246 652 1246 q 776 1214 744 1246 q 808 1137 808 1182 q 776 1056 808 1088 q 697 1023 744 1023 q 619 1056 652 1023 q 586 1137 586 1089 z "},"ì":{"ha":416,"x_min":31,"x_max":318,"o":"m 111 972 l 306 972 l 306 0 l 111 0 l 111 972 m 31 1278 l 260 1278 l 318 1069 l 89 1069 l 31 1278 z "},"í":{"ha":416,"x_min":111,"x_max":371,"o":"m 111 972 l 306 972 l 306 0 l 111 0 l 111 972 m 113 1032 l 174 1261 l 371 1261 l 310 1032 l 113 1032 z "},"î":{"ha":416,"x_min":-65,"x_max":479,"o":"m 111 972 l 306 972 l 306 0 l 111 0 l 111 972 m -65 1120 l 154 1296 l 260 1296 l 479 1120 l 371 1013 l 207 1150 l 43 1013 l -65 1120 z "},"ï":{"ha":416,"x_min":-31,"x_max":453,"o":"m 111 972 l 306 972 l 306 0 l 111 0 l 111 972 m -31 1165 q 2 1242 -31 1210 q 81 1274 35 1274 q 159 1242 127 1274 q 192 1165 192 1210 q 159 1084 192 1117 q 81 1051 127 1051 q 2 1084 35 1051 q -31 1165 -31 1117 m 231 1165 q 264 1242 231 1210 q 342 1274 297 1274 q 421 1242 389 1274 q 453 1165 453 1210 q 421 1084 453 1116 q 342 1051 389 1051 q 263 1084 296 1051 q 231 1165 231 1117 z "},"ð":{"ha":943,"x_min":-3,"x_max":901,"o":"m 111 0 l 111 397 l -3 397 l -3 575 l 111 575 l 111 972 l 454 972 q 630 938 548 972 q 772 841 711 903 q 867 687 832 779 q 901 484 901 594 q 866 265 901 359 q 769 114 831 171 q 624 28 706 56 q 443 0 542 0 l 111 0 m 306 195 l 443 195 q 644 261 582 195 q 707 484 707 327 q 639 703 707 627 q 454 778 572 778 l 306 778 l 306 575 l 551 575 l 551 397 l 306 397 l 306 195 z "},"ñ":{"ha":1031,"x_min":109,"x_max":924,"o":"m 340 972 l 743 301 l 743 972 l 921 972 l 921 4 l 924 0 l 692 0 l 290 669 l 290 0 l 111 0 l 111 968 l 109 972 l 340 972 m 245 1071 q 287 1197 245 1139 q 397 1271 328 1254 q 554 1236 465 1288 q 610 1272 610 1202 l 772 1272 q 731 1145 772 1204 q 621 1068 689 1086 q 468 1099 553 1050 q 430 1115 444 1114 q 412 1104 416 1115 q 407 1071 407 1093 l 245 1071 z "},"ò":{"ha":1018,"x_min":83,"x_max":953,"o":"m 519 174 q 707 244 655 174 q 758 486 758 314 q 706 727 758 657 q 519 798 654 798 q 330 728 382 798 q 278 486 278 658 q 330 243 278 313 q 519 174 381 174 m 83 486 q 112 683 83 591 q 193 843 140 774 q 331 952 247 912 q 519 991 414 991 q 706 952 623 991 q 843 843 789 912 q 925 683 897 774 q 953 486 953 591 q 925 288 953 380 q 843 127 897 197 q 706 19 789 58 q 519 -21 623 -21 q 331 19 414 -21 q 193 127 247 58 q 112 288 140 197 q 83 486 83 380 m 330 1278 l 559 1278 l 618 1069 l 389 1069 l 330 1278 z "},"ó":{"ha":1018,"x_min":83,"x_max":953,"o":"m 519 174 q 707 244 655 174 q 758 486 758 314 q 706 727 758 657 q 519 798 654 798 q 330 728 382 798 q 278 486 278 658 q 330 243 278 313 q 519 174 381 174 m 83 486 q 112 683 83 591 q 193 843 140 774 q 331 952 247 912 q 519 991 414 991 q 706 952 623 991 q 843 843 789 912 q 925 683 897 774 q 953 486 953 591 q 925 288 953 380 q 843 127 897 197 q 706 19 789 58 q 519 -21 623 -21 q 331 19 414 -21 q 193 127 247 58 q 112 288 140 197 q 83 486 83 380 m 428 1032 l 489 1261 l 686 1261 l 625 1032 l 428 1032 z "},"ô":{"ha":1018,"x_min":83,"x_max":953,"o":"m 519 174 q 707 244 655 174 q 758 486 758 314 q 706 727 758 657 q 519 798 654 798 q 330 728 382 798 q 278 486 278 658 q 330 243 278 313 q 519 174 381 174 m 83 486 q 112 683 83 591 q 193 843 140 774 q 331 952 247 912 q 519 991 414 991 q 706 952 623 991 q 843 843 789 912 q 925 683 897 774 q 953 486 953 591 q 925 288 953 380 q 843 127 897 197 q 706 19 789 58 q 519 -21 623 -21 q 331 19 414 -21 q 193 127 247 58 q 112 288 140 197 q 83 486 83 380 m 236 1120 l 456 1296 l 561 1296 l 781 1120 l 672 1013 l 509 1150 l 345 1013 l 236 1120 z "},"õ":{"ha":1018,"x_min":83,"x_max":953,"o":"m 519 174 q 707 244 655 174 q 758 486 758 314 q 706 727 758 657 q 519 798 654 798 q 330 728 382 798 q 278 486 278 658 q 330 243 278 313 q 519 174 381 174 m 83 486 q 112 683 83 591 q 193 843 140 774 q 331 952 247 912 q 519 991 414 991 q 706 952 623 991 q 843 843 789 912 q 925 683 897 774 q 953 486 953 591 q 925 288 953 380 q 843 127 897 197 q 706 19 789 58 q 519 -21 623 -21 q 331 19 414 -21 q 193 127 247 58 q 112 288 140 197 q 83 486 83 380 m 239 1071 q 280 1197 239 1139 q 390 1271 321 1254 q 547 1236 458 1288 q 603 1272 603 1202 l 765 1272 q 723 1145 765 1204 q 614 1068 682 1086 q 461 1099 547 1050 q 423 1115 437 1114 q 405 1104 410 1115 q 400 1071 400 1093 l 239 1071 z "},"ö":{"ha":1018,"x_min":83,"x_max":953,"o":"m 519 174 q 707 244 655 174 q 758 486 758 314 q 706 727 758 657 q 519 798 654 798 q 330 728 382 798 q 278 486 278 658 q 330 243 278 313 q 519 174 381 174 m 83 486 q 112 683 83 591 q 193 843 140 774 q 331 952 247 912 q 519 991 414 991 q 706 952 623 991 q 843 843 789 912 q 925 683 897 774 q 953 486 953 591 q 925 288 953 380 q 843 127 897 197 q 706 19 789 58 q 519 -21 623 -21 q 331 19 414 -21 q 193 127 247 58 q 112 288 140 197 q 83 486 83 380 m 164 1137 q 197 1214 164 1182 q 275 1246 231 1246 q 354 1214 322 1246 q 386 1137 386 1182 q 354 1056 386 1088 q 275 1023 322 1023 q 197 1056 230 1023 q 164 1137 164 1089 m 631 1137 q 664 1214 631 1182 q 742 1246 697 1246 q 821 1214 789 1246 q 852 1137 852 1182 q 821 1056 852 1088 q 742 1023 789 1023 q 664 1056 696 1023 q 631 1137 631 1089 z "},"÷":{"ha":861,"x_min":139,"x_max":722,"o":"m 722 542 l 722 347 l 139 347 l 139 542 l 722 542 m 319 184 q 353 261 319 229 q 431 293 386 293 q 510 261 477 293 q 542 184 542 229 q 510 103 542 136 q 431 71 477 71 q 352 103 385 71 q 319 184 319 136 m 319 713 q 353 789 319 758 q 431 821 386 821 q 510 789 477 821 q 542 713 542 758 q 510 631 542 664 q 431 599 477 599 q 352 632 385 599 q 319 713 319 665 z "},"ø":{"ha":1018,"x_min":81,"x_max":953,"o":"m 519 174 q 707 244 655 174 q 758 486 758 314 q 726 694 758 625 l 421 184 q 519 174 466 174 m 81 -39 l 186 138 q 83 486 83 274 q 112 683 83 591 q 193 843 140 774 q 331 952 247 912 q 519 991 414 991 q 677 964 608 991 l 704 1007 l 913 1007 l 827 863 q 921 696 888 793 q 953 486 953 599 q 925 288 953 380 q 843 127 897 197 q 706 19 789 58 q 519 -21 623 -21 q 323 22 410 -21 l 288 -39 l 81 -39 m 278 486 q 294 319 278 379 l 576 794 q 519 798 534 798 q 330 728 382 798 q 278 486 278 658 z "},"ù":{"ha":1075,"x_min":111,"x_max":964,"o":"m 770 972 l 964 972 l 964 440 q 853 96 964 212 q 539 -20 743 -20 q 222 96 332 -20 q 111 440 111 212 l 111 972 l 306 972 l 306 440 q 361 236 306 298 q 539 175 416 175 q 714 237 659 175 q 770 440 770 298 l 770 972 m 359 1278 l 589 1278 l 647 1069 l 418 1069 l 359 1278 z "},"ú":{"ha":1075,"x_min":111,"x_max":964,"o":"m 770 972 l 964 972 l 964 440 q 853 96 964 212 q 539 -20 743 -20 q 222 96 332 -20 q 111 440 111 212 l 111 972 l 306 972 l 306 440 q 361 236 306 298 q 539 175 416 175 q 714 237 659 175 q 770 440 770 298 l 770 972 m 457 1032 l 518 1261 l 715 1261 l 654 1032 l 457 1032 z "},"û":{"ha":1075,"x_min":111,"x_max":964,"o":"m 770 972 l 964 972 l 964 440 q 853 96 964 212 q 539 -20 743 -20 q 222 96 332 -20 q 111 440 111 212 l 111 972 l 306 972 l 306 440 q 361 236 306 298 q 539 175 416 175 q 714 237 659 175 q 770 440 770 298 l 770 972 m 264 1120 l 484 1296 l 589 1296 l 808 1120 l 700 1013 l 536 1150 l 372 1013 l 264 1120 z "},"ü":{"ha":1075,"x_min":111,"x_max":964,"o":"m 770 972 l 964 972 l 964 440 q 853 96 964 212 q 539 -20 743 -20 q 222 96 332 -20 q 111 440 111 212 l 111 972 l 306 972 l 306 440 q 361 236 306 298 q 539 175 416 175 q 714 237 659 175 q 770 440 770 298 l 770 972 m 193 1137 q 227 1214 193 1182 q 304 1246 260 1246 q 383 1214 351 1246 q 415 1137 415 1182 q 383 1056 415 1088 q 304 1023 351 1023 q 226 1056 259 1023 q 193 1137 193 1089 m 660 1137 q 693 1214 660 1182 q 771 1246 726 1246 q 850 1214 818 1246 q 882 1137 882 1182 q 850 1056 882 1088 q 771 1023 818 1023 q 693 1056 726 1023 q 660 1137 660 1089 z "},"ý":{"ha":924,"x_min":14,"x_max":911,"o":"m 557 0 l 363 0 l 363 323 l 14 971 l 235 971 l 468 539 l 707 972 l 911 972 l 557 332 l 557 0 m 382 1032 l 443 1261 l 640 1261 l 579 1032 l 382 1032 z "},"þ":{"ha":901,"x_min":111,"x_max":818,"o":"m 111 972 l 306 972 l 306 832 l 412 832 q 708 744 599 832 q 818 507 818 656 q 706 271 818 358 q 401 184 594 184 l 306 184 l 306 0 l 111 0 l 111 972 m 306 380 l 401 380 q 537 395 488 380 q 605 436 586 409 q 624 507 624 463 q 578 605 624 576 q 412 635 532 635 l 306 635 l 306 380 z "},"ÿ":{"ha":924,"x_min":14,"x_max":911,"o":"m 557 0 l 363 0 l 363 323 l 14 971 l 235 971 l 468 539 l 707 972 l 911 972 l 557 332 l 557 0 m 118 1137 q 151 1214 118 1182 q 229 1246 184 1246 q 308 1214 276 1246 q 340 1137 340 1182 q 308 1056 340 1088 q 229 1023 276 1023 q 151 1056 184 1023 q 118 1137 118 1089 m 585 1137 q 618 1214 585 1182 q 696 1246 651 1246 q 775 1214 743 1246 q 807 1137 807 1182 q 775 1056 807 1088 q 696 1023 743 1023 q 617 1056 650 1023 q 585 1137 585 1089 z "},"Ā":{"ha":990,"x_min":28,"x_max":977,"o":"m 977 -1 l 777 -1 l 669 298 l 343 298 l 229 -1 l 28 -1 l 399 972 l 627 972 l 977 -1 m 235 1040 l 235 1218 l 789 1218 l 789 1040 l 235 1040 m 411 476 l 606 476 l 511 741 l 411 476 z "},"ā":{"ha":990,"x_min":28,"x_max":977,"o":"m 977 -1 l 777 -1 l 669 298 l 343 298 l 229 -1 l 28 -1 l 399 972 l 627 972 l 977 -1 m 235 1040 l 235 1218 l 789 1218 l 789 1040 l 235 1040 m 411 476 l 606 476 l 511 741 l 411 476 z "},"Ă":{"ha":990,"x_min":28,"x_max":977,"o":"m 977 -1 l 777 -1 l 669 298 l 343 298 l 229 -1 l 28 -1 l 399 972 l 627 972 l 977 -1 m 204 1344 l 382 1344 q 387 1300 382 1319 q 405 1261 392 1280 q 445 1231 418 1242 q 513 1221 473 1221 q 579 1231 553 1221 q 619 1261 606 1242 q 637 1300 632 1280 q 642 1344 642 1319 l 819 1344 q 812 1278 819 1313 q 784 1199 805 1242 q 730 1123 763 1156 q 641 1066 698 1089 q 513 1043 585 1043 q 416 1055 460 1043 q 340 1086 371 1067 q 285 1133 309 1106 q 245 1187 260 1160 q 221 1244 231 1215 q 208 1298 212 1274 q 204 1344 204 1322 m 411 476 l 606 476 l 511 741 l 411 476 z "},"ă":{"ha":990,"x_min":28,"x_max":977,"o":"m 977 -1 l 777 -1 l 669 298 l 343 298 l 229 -1 l 28 -1 l 399 972 l 627 972 l 977 -1 m 204 1344 l 382 1344 q 387 1300 382 1319 q 405 1261 392 1280 q 445 1231 418 1242 q 513 1221 473 1221 q 579 1231 553 1221 q 619 1261 606 1242 q 637 1300 632 1280 q 642 1344 642 1319 l 819 1344 q 812 1278 819 1313 q 784 1199 805 1242 q 730 1123 763 1156 q 641 1066 698 1089 q 513 1043 585 1043 q 416 1055 460 1043 q 340 1086 371 1067 q 285 1133 309 1106 q 245 1187 260 1160 q 221 1244 231 1215 q 208 1298 212 1274 q 204 1344 204 1322 m 411 476 l 606 476 l 511 741 l 411 476 z "},"Ą":{"ha":990,"x_min":28,"x_max":1053,"o":"m 908 -396 q 845 -315 871 -358 q 806 -236 819 -272 q 786 -156 793 -201 q 778 -82 779 -111 q 777 -14 777 -54 q 777 -1 777 -5 l 669 298 l 343 298 l 229 -1 l 28 -1 l 399 972 l 627 972 l 977 0 q 977 -62 977 -43 q 981 -114 977 -81 q 992 -166 985 -146 q 1015 -211 1000 -186 q 1053 -258 1030 -236 l 908 -396 m 411 476 l 606 476 l 511 741 l 411 476 z "},"ą":{"ha":990,"x_min":28,"x_max":1053,"o":"m 908 -396 q 845 -315 871 -358 q 806 -236 819 -272 q 786 -156 793 -201 q 778 -82 779 -111 q 777 -14 777 -54 q 777 -1 777 -5 l 669 298 l 343 298 l 229 -1 l 28 -1 l 399 972 l 627 972 l 977 0 q 977 -62 977 -43 q 981 -114 977 -81 q 992 -166 985 -146 q 1015 -211 1000 -186 q 1053 -258 1030 -236 l 908 -396 m 411 476 l 606 476 l 511 741 l 411 476 z "},"Ć":{"ha":926,"x_min":71,"x_max":843,"o":"m 843 79 q 522 -18 698 -18 q 358 11 433 -18 q 230 90 282 41 q 141 204 178 139 q 87 341 104 270 q 71 486 71 412 q 89 630 71 559 q 148 767 107 701 q 245 882 188 833 q 388 962 303 932 q 572 991 472 991 q 843 913 684 991 l 843 672 q 792 709 824 685 q 743 745 760 733 q 697 771 725 757 q 640 791 670 785 q 572 798 610 798 q 454 782 506 798 q 366 738 401 766 q 308 670 331 710 q 275 585 286 631 q 265 486 265 540 q 280 363 265 418 q 324 266 294 308 q 405 200 354 223 q 522 176 455 176 q 612 185 571 176 q 685 212 652 194 q 740 245 718 229 q 793 287 763 262 q 843 325 824 312 l 843 79 m 482 1032 l 543 1261 l 741 1261 l 679 1032 l 482 1032 z "},"ć":{"ha":926,"x_min":71,"x_max":843,"o":"m 843 79 q 522 -18 698 -18 q 358 11 433 -18 q 230 90 282 41 q 141 204 178 139 q 87 341 104 270 q 71 486 71 412 q 89 630 71 559 q 148 767 107 701 q 245 882 188 833 q 388 962 303 932 q 572 991 472 991 q 843 913 684 991 l 843 672 q 792 709 824 685 q 743 745 760 733 q 697 771 725 757 q 640 791 670 785 q 572 798 610 798 q 454 782 506 798 q 366 738 401 766 q 308 670 331 710 q 275 585 286 631 q 265 486 265 540 q 280 363 265 418 q 324 266 294 308 q 405 200 354 223 q 522 176 455 176 q 612 185 571 176 q 685 212 652 194 q 740 245 718 229 q 793 287 763 262 q 843 325 824 312 l 843 79 m 482 1032 l 543 1261 l 741 1261 l 679 1032 l 482 1032 z "},"Ċ":{"ha":926,"x_min":71,"x_max":843,"o":"m 843 79 q 522 -18 698 -18 q 358 11 433 -18 q 230 90 282 41 q 141 204 178 139 q 87 341 104 270 q 71 486 71 412 q 89 630 71 559 q 148 767 107 701 q 245 882 188 833 q 388 962 303 932 q 572 991 472 991 q 843 913 684 991 l 843 672 q 792 709 824 685 q 743 745 760 733 q 697 771 725 757 q 640 791 670 785 q 572 798 610 798 q 454 782 506 798 q 366 738 401 766 q 308 670 331 710 q 275 585 286 631 q 265 486 265 540 q 280 363 265 418 q 324 266 294 308 q 405 200 354 223 q 522 176 455 176 q 612 185 571 176 q 685 212 652 194 q 740 245 718 229 q 793 287 763 262 q 843 325 824 312 l 843 79 m 452 1177 q 485 1253 452 1221 q 562 1284 517 1284 q 641 1253 609 1284 q 673 1177 673 1221 q 641 1095 673 1128 q 562 1063 609 1063 q 484 1096 517 1063 q 452 1177 452 1128 z "},"ċ":{"ha":926,"x_min":71,"x_max":843,"o":"m 843 79 q 522 -18 698 -18 q 358 11 433 -18 q 230 90 282 41 q 141 204 178 139 q 87 341 104 270 q 71 486 71 412 q 89 630 71 559 q 148 767 107 701 q 245 882 188 833 q 388 962 303 932 q 572 991 472 991 q 843 913 684 991 l 843 672 q 792 709 824 685 q 743 745 760 733 q 697 771 725 757 q 640 791 670 785 q 572 798 610 798 q 454 782 506 798 q 366 738 401 766 q 308 670 331 710 q 275 585 286 631 q 265 486 265 540 q 280 363 265 418 q 324 266 294 308 q 405 200 354 223 q 522 176 455 176 q 612 185 571 176 q 685 212 652 194 q 740 245 718 229 q 793 287 763 262 q 843 325 824 312 l 843 79 m 452 1177 q 485 1253 452 1221 q 562 1284 517 1284 q 641 1253 609 1284 q 673 1177 673 1221 q 641 1095 673 1128 q 562 1063 609 1063 q 484 1096 517 1063 q 452 1177 452 1128 z "},"Č":{"ha":926,"x_min":71,"x_max":843,"o":"m 843 79 q 522 -18 698 -18 q 358 11 433 -18 q 230 90 282 41 q 141 204 178 139 q 87 341 104 270 q 71 486 71 412 q 89 630 71 559 q 148 767 107 701 q 245 882 188 833 q 388 962 303 932 q 572 991 472 991 q 843 913 684 991 l 843 672 q 792 709 824 685 q 743 745 760 733 q 697 771 725 757 q 640 791 670 785 q 572 798 610 798 q 454 782 506 798 q 366 738 401 766 q 308 670 331 710 q 275 585 286 631 q 265 486 265 540 q 280 363 265 418 q 324 266 294 308 q 405 200 354 223 q 522 176 455 176 q 612 185 571 176 q 685 212 652 194 q 740 245 718 229 q 793 287 763 262 q 843 325 824 312 l 843 79 m 293 1217 l 401 1324 l 567 1185 l 730 1324 l 839 1217 l 618 1040 l 514 1040 l 293 1217 z "},"č":{"ha":926,"x_min":71,"x_max":843,"o":"m 843 79 q 522 -18 698 -18 q 358 11 433 -18 q 230 90 282 41 q 141 204 178 139 q 87 341 104 270 q 71 486 71 412 q 89 630 71 559 q 148 767 107 701 q 245 882 188 833 q 388 962 303 932 q 572 991 472 991 q 843 913 684 991 l 843 672 q 792 709 824 685 q 743 745 760 733 q 697 771 725 757 q 640 791 670 785 q 572 798 610 798 q 454 782 506 798 q 366 738 401 766 q 308 670 331 710 q 275 585 286 631 q 265 486 265 540 q 280 363 265 418 q 324 266 294 308 q 405 200 354 223 q 522 176 455 176 q 612 185 571 176 q 685 212 652 194 q 740 245 718 229 q 793 287 763 262 q 843 325 824 312 l 843 79 m 290 1193 l 399 1301 l 562 1162 l 726 1301 l 835 1193 l 615 1017 l 510 1018 l 290 1193 z "},"Ď":{"ha":943,"x_min":111,"x_max":901,"o":"m 111 0 l 111 972 l 454 972 q 630 938 548 972 q 772 841 711 903 q 867 687 832 779 q 901 484 901 594 q 866 265 901 359 q 769 114 831 171 q 624 28 706 56 q 443 0 542 0 l 111 0 m 199 1193 l 307 1301 l 471 1162 l 635 1301 l 743 1193 l 524 1017 l 418 1018 l 199 1193 m 306 195 l 443 195 q 644 261 582 195 q 707 484 707 327 q 639 703 707 627 q 454 778 572 778 l 306 778 l 306 195 z "},"ď":{"ha":943,"x_min":111,"x_max":901,"o":"m 111 0 l 111 972 l 454 972 q 630 938 548 972 q 772 841 711 903 q 867 687 832 779 q 901 484 901 594 q 866 265 901 359 q 769 114 831 171 q 624 28 706 56 q 443 0 542 0 l 111 0 m 199 1193 l 307 1301 l 471 1162 l 635 1301 l 743 1193 l 524 1017 l 418 1018 l 199 1193 m 306 195 l 443 195 q 644 261 582 195 q 707 484 707 327 q 639 703 707 627 q 454 778 572 778 l 306 778 l 306 195 z "},"Đ":{"ha":943,"x_min":-3,"x_max":901,"o":"m 111 0 l 111 397 l -3 397 l -3 575 l 111 575 l 111 972 l 454 972 q 630 938 548 972 q 772 841 711 903 q 867 687 832 779 q 901 484 901 594 q 866 265 901 359 q 769 114 831 171 q 624 28 706 56 q 443 0 542 0 l 111 0 m 306 195 l 443 195 q 644 261 582 195 q 707 484 707 327 q 639 703 707 627 q 454 778 572 778 l 306 778 l 306 575 l 551 575 l 551 397 l 306 397 l 306 195 z "},"đ":{"ha":943,"x_min":-3,"x_max":901,"o":"m 111 0 l 111 397 l -3 397 l -3 575 l 111 575 l 111 972 l 454 972 q 630 938 548 972 q 772 841 711 903 q 867 687 832 779 q 901 484 901 594 q 866 265 901 359 q 769 114 831 171 q 624 28 706 56 q 443 0 542 0 l 111 0 m 306 195 l 443 195 q 644 261 582 195 q 707 484 707 327 q 639 703 707 627 q 454 778 572 778 l 306 778 l 306 575 l 551 575 l 551 397 l 306 397 l 306 195 z "},"Ē":{"ha":886,"x_min":111,"x_max":831,"o":"m 111 0 l 111 972 l 808 972 l 808 775 l 306 775 l 306 612 l 684 612 l 684 435 l 306 435 l 306 197 l 831 197 l 831 0 l 111 0 m 186 1040 l 186 1218 l 741 1218 l 741 1040 l 186 1040 z "},"ē":{"ha":886,"x_min":111,"x_max":831,"o":"m 111 0 l 111 972 l 808 972 l 808 775 l 306 775 l 306 612 l 684 612 l 684 435 l 306 435 l 306 197 l 831 197 l 831 0 l 111 0 m 186 1040 l 186 1218 l 741 1218 l 741 1040 l 186 1040 z "},"Ė":{"ha":886,"x_min":111,"x_max":831,"o":"m 111 0 l 111 972 l 808 972 l 808 775 l 306 775 l 306 612 l 684 612 l 684 435 l 306 435 l 306 197 l 831 197 l 831 0 l 111 0 m 353 1177 q 386 1253 353 1221 q 464 1284 419 1284 q 543 1253 511 1284 q 575 1177 575 1221 q 543 1095 575 1128 q 464 1063 511 1063 q 386 1096 418 1063 q 353 1177 353 1128 z "},"ė":{"ha":886,"x_min":111,"x_max":831,"o":"m 111 0 l 111 972 l 808 972 l 808 775 l 306 775 l 306 612 l 684 612 l 684 435 l 306 435 l 306 197 l 831 197 l 831 0 l 111 0 m 353 1177 q 386 1253 353 1221 q 464 1284 419 1284 q 543 1253 511 1284 q 575 1177 575 1221 q 543 1095 575 1128 q 464 1063 511 1063 q 386 1096 418 1063 q 353 1177 353 1128 z "},"Ę":{"ha":886,"x_min":111,"x_max":907,"o":"m 111 0 l 111 972 l 808 972 l 808 775 l 306 775 l 306 612 l 684 612 l 684 435 l 306 435 l 306 197 l 831 197 l 831 0 q 831 -62 831 -43 q 835 -114 831 -81 q 847 -166 839 -146 q 869 -211 854 -186 q 907 -258 884 -236 l 762 -396 q 723 -349 741 -374 q 692 -304 705 -325 q 669 -256 679 -283 q 653 -211 659 -229 q 643 -164 647 -193 q 636 -121 638 -135 q 633 -77 634 -108 q 632 -38 632 -47 q 632 0 632 -30 l 111 0 z "},"ę":{"ha":886,"x_min":111,"x_max":907,"o":"m 111 0 l 111 972 l 808 972 l 808 775 l 306 775 l 306 612 l 684 612 l 684 435 l 306 435 l 306 197 l 831 197 l 831 0 q 831 -62 831 -43 q 835 -114 831 -81 q 847 -166 839 -146 q 869 -211 854 -186 q 907 -258 884 -236 l 762 -396 q 723 -349 741 -374 q 692 -304 705 -325 q 669 -256 679 -283 q 653 -211 659 -229 q 643 -164 647 -193 q 636 -121 638 -135 q 633 -77 634 -108 q 632 -38 632 -47 q 632 0 632 -30 l 111 0 z "},"Ě":{"ha":886,"x_min":111,"x_max":831,"o":"m 111 0 l 111 972 l 808 972 l 808 775 l 306 775 l 306 612 l 684 612 l 684 435 l 306 435 l 306 197 l 831 197 l 831 0 l 111 0 m 191 1193 l 298 1301 l 463 1162 l 627 1301 l 734 1193 l 515 1017 l 410 1018 l 191 1193 z "},"ě":{"ha":886,"x_min":111,"x_max":831,"o":"m 111 0 l 111 972 l 808 972 l 808 775 l 306 775 l 306 612 l 684 612 l 684 435 l 306 435 l 306 197 l 831 197 l 831 0 l 111 0 m 191 1193 l 298 1301 l 463 1162 l 627 1301 l 734 1193 l 515 1017 l 410 1018 l 191 1193 z "},"Ğ":{"ha":1037,"x_min":83,"x_max":955,"o":"m 574 335 l 574 529 l 943 529 q 954 445 953 489 q 948 354 955 400 q 924 262 941 308 q 883 176 907 217 q 823 99 859 134 q 746 38 788 64 q 648 -3 703 12 q 532 -18 593 -18 q 368 11 443 -18 q 241 90 293 41 q 154 204 190 139 q 100 341 117 270 q 83 486 83 412 q 102 632 83 560 q 159 768 120 703 q 252 883 197 833 q 387 962 307 932 q 559 991 466 991 q 732 971 657 991 q 871 892 807 951 l 867 697 q 728 774 802 751 q 559 798 653 798 q 430 774 486 798 q 342 707 375 750 q 294 608 310 663 q 278 486 278 553 q 292 363 278 418 q 336 266 307 308 q 415 200 366 223 q 532 176 465 176 q 749 335 704 176 l 574 335 m 201 1344 l 379 1344 q 384 1300 379 1319 q 402 1261 389 1280 q 443 1231 415 1242 q 510 1221 470 1221 q 577 1231 550 1221 q 616 1261 604 1242 q 634 1300 629 1280 q 639 1344 639 1319 l 817 1344 q 809 1278 817 1313 q 781 1199 802 1242 q 728 1123 760 1156 q 638 1066 695 1089 q 510 1043 582 1043 q 413 1055 458 1043 q 337 1086 368 1067 q 282 1133 307 1106 q 243 1187 258 1160 q 218 1244 228 1215 q 205 1298 209 1274 q 201 1344 201 1322 z "},"ğ":{"ha":1037,"x_min":83,"x_max":955,"o":"m 574 335 l 574 529 l 943 529 q 954 445 953 489 q 948 354 955 400 q 924 262 941 308 q 883 176 907 217 q 823 99 859 134 q 746 38 788 64 q 648 -3 703 12 q 532 -18 593 -18 q 368 11 443 -18 q 241 90 293 41 q 154 204 190 139 q 100 341 117 270 q 83 486 83 412 q 102 632 83 560 q 159 768 120 703 q 252 883 197 833 q 387 962 307 932 q 559 991 466 991 q 732 971 657 991 q 871 892 807 951 l 867 697 q 728 774 802 751 q 559 798 653 798 q 430 774 486 798 q 342 707 375 750 q 294 608 310 663 q 278 486 278 553 q 292 363 278 418 q 336 266 307 308 q 415 200 366 223 q 532 176 465 176 q 749 335 704 176 l 574 335 m 201 1344 l 379 1344 q 384 1300 379 1319 q 402 1261 389 1280 q 443 1231 415 1242 q 510 1221 470 1221 q 577 1231 550 1221 q 616 1261 604 1242 q 634 1300 629 1280 q 639 1344 639 1319 l 817 1344 q 809 1278 817 1313 q 781 1199 802 1242 q 728 1123 760 1156 q 638 1066 695 1089 q 510 1043 582 1043 q 413 1055 458 1043 q 337 1086 368 1067 q 282 1133 307 1106 q 243 1187 258 1160 q 218 1244 228 1215 q 205 1298 209 1274 q 201 1344 201 1322 z "},"Ġ":{"ha":1037,"x_min":83,"x_max":955,"o":"m 574 335 l 574 529 l 943 529 q 954 445 953 489 q 948 354 955 400 q 924 262 941 308 q 883 176 907 217 q 823 99 859 134 q 746 38 788 64 q 648 -3 703 12 q 532 -18 593 -18 q 368 11 443 -18 q 241 90 293 41 q 154 204 190 139 q 100 341 117 270 q 83 486 83 412 q 102 632 83 560 q 159 768 120 703 q 252 883 197 833 q 387 962 307 932 q 559 991 466 991 q 732 971 657 991 q 871 892 807 951 l 867 697 q 728 774 802 751 q 559 798 653 798 q 430 774 486 798 q 342 707 375 750 q 294 608 310 663 q 278 486 278 553 q 292 363 278 418 q 336 266 307 308 q 415 200 366 223 q 532 176 465 176 q 749 335 704 176 l 574 335 m 399 1177 q 432 1253 399 1221 q 510 1284 465 1284 q 589 1253 557 1284 q 621 1177 621 1221 q 589 1095 621 1128 q 510 1063 557 1063 q 432 1096 465 1063 q 399 1177 399 1128 z "},"ġ":{"ha":1037,"x_min":83,"x_max":955,"o":"m 574 335 l 574 529 l 943 529 q 954 445 953 489 q 948 354 955 400 q 924 262 941 308 q 883 176 907 217 q 823 99 859 134 q 746 38 788 64 q 648 -3 703 12 q 532 -18 593 -18 q 368 11 443 -18 q 241 90 293 41 q 154 204 190 139 q 100 341 117 270 q 83 486 83 412 q 102 632 83 560 q 159 768 120 703 q 252 883 197 833 q 387 962 307 932 q 559 991 466 991 q 732 971 657 991 q 871 892 807 951 l 867 697 q 728 774 802 751 q 559 798 653 798 q 430 774 486 798 q 342 707 375 750 q 294 608 310 663 q 278 486 278 553 q 292 363 278 418 q 336 266 307 308 q 415 200 366 223 q 532 176 465 176 q 749 335 704 176 l 574 335 m 399 1177 q 432 1253 399 1221 q 510 1284 465 1284 q 589 1253 557 1284 q 621 1177 621 1221 q 589 1095 621 1128 q 510 1063 557 1063 q 432 1096 465 1063 q 399 1177 399 1128 z "},"Ģ":{"ha":1037,"x_min":83,"x_max":955,"o":"m 574 335 l 574 529 l 943 529 q 954 445 953 489 q 948 354 955 400 q 924 262 941 308 q 883 176 907 217 q 823 99 859 134 q 746 38 788 64 q 648 -3 703 12 q 532 -18 593 -18 q 368 11 443 -18 q 241 90 293 41 q 154 204 190 139 q 100 341 117 270 q 83 486 83 412 q 102 632 83 560 q 159 768 120 703 q 252 883 197 833 q 387 962 307 932 q 559 991 466 991 q 732 971 657 991 q 871 892 807 951 l 867 697 q 728 774 802 751 q 559 798 653 798 q 430 774 486 798 q 342 707 375 750 q 294 608 310 663 q 278 486 278 553 q 292 363 278 418 q 336 266 307 308 q 415 200 366 223 q 532 176 465 176 q 749 335 704 176 l 574 335 m 340 -314 q 378 -266 363 -291 q 400 -221 393 -241 q 412 -169 408 -201 q 416 -117 416 -136 q 416 -56 416 -98 l 611 -56 q 611 -105 611 -90 q 608 -157 610 -121 q 601 -215 606 -193 q 587 -272 597 -237 q 564 -333 578 -307 q 529 -391 551 -359 q 479 -450 507 -422 l 340 -314 z "},"ģ":{"ha":1037,"x_min":83,"x_max":955,"o":"m 574 335 l 574 529 l 943 529 q 954 445 953 489 q 948 354 955 400 q 924 262 941 308 q 883 176 907 217 q 823 99 859 134 q 746 38 788 64 q 648 -3 703 12 q 532 -18 593 -18 q 368 11 443 -18 q 241 90 293 41 q 154 204 190 139 q 100 341 117 270 q 83 486 83 412 q 102 632 83 560 q 159 768 120 703 q 252 883 197 833 q 387 962 307 932 q 559 991 466 991 q 732 971 657 991 q 871 892 807 951 l 867 697 q 728 774 802 751 q 559 798 653 798 q 430 774 486 798 q 342 707 375 750 q 294 608 310 663 q 278 486 278 553 q 292 363 278 418 q 336 266 307 308 q 415 200 366 223 q 532 176 465 176 q 749 335 704 176 l 574 335 m 460 1042 q 460 1091 460 1076 q 463 1143 460 1107 q 470 1200 465 1179 q 484 1257 474 1222 q 507 1318 493 1291 q 542 1376 521 1344 q 591 1435 564 1407 l 730 1301 q 693 1253 708 1278 q 670 1208 678 1227 q 659 1156 663 1188 q 655 1104 655 1123 q 654 1042 654 1084 l 460 1042 z "},"Ħ":{"ha":1015,"x_min":50,"x_max":966,"o":"m 111 972 l 306 972 l 306 882 l 710 882 l 710 972 l 904 972 l 904 882 l 966 882 l 966 703 l 904 703 l 904 0 l 710 0 l 710 432 l 306 432 l 306 0 l 111 0 l 111 703 l 50 703 l 50 882 l 111 882 l 111 972 m 306 610 l 710 610 l 710 703 l 306 703 l 306 610 z "},"ħ":{"ha":1015,"x_min":50,"x_max":966,"o":"m 111 972 l 306 972 l 306 882 l 710 882 l 710 972 l 904 972 l 904 882 l 966 882 l 966 703 l 904 703 l 904 0 l 710 0 l 710 432 l 306 432 l 306 0 l 111 0 l 111 703 l 50 703 l 50 882 l 111 882 l 111 972 m 306 610 l 710 610 l 710 703 l 306 703 l 306 610 z "},"Ĩ":{"ha":416,"x_min":-61,"x_max":465,"o":"m 111 972 l 306 972 l 306 0 l 111 0 l 111 972 m -61 1071 q -20 1197 -61 1139 q 90 1271 22 1254 q 248 1236 159 1288 q 281 1224 269 1222 q 298 1239 293 1227 q 302 1272 302 1251 l 465 1272 q 424 1145 465 1204 q 314 1068 382 1086 q 161 1099 247 1050 q 123 1115 137 1114 q 104 1104 109 1115 q 100 1071 100 1093 l -61 1071 z "},"ĩ":{"ha":416,"x_min":-61,"x_max":465,"o":"m 111 972 l 306 972 l 306 0 l 111 0 l 111 972 m -61 1071 q -20 1197 -61 1139 q 90 1271 22 1254 q 248 1236 159 1288 q 281 1224 269 1222 q 298 1239 293 1227 q 302 1272 302 1251 l 465 1272 q 424 1145 465 1204 q 314 1068 382 1086 q 161 1099 247 1050 q 123 1115 137 1114 q 104 1104 109 1115 q 100 1071 100 1093 l -61 1071 z "},"Ī":{"ha":416,"x_min":-115,"x_max":530,"o":"m 111 972 l 306 972 l 306 0 l 111 0 l 111 972 m -115 1040 l -115 1218 l 530 1218 l 530 1040 l -115 1040 z "},"ī":{"ha":416,"x_min":-115,"x_max":530,"o":"m 111 972 l 306 972 l 306 0 l 111 0 l 111 972 m -115 1040 l -115 1218 l 530 1218 l 530 1040 l -115 1040 z "},"Į":{"ha":416,"x_min":107,"x_max":382,"o":"m 111 972 l 306 972 l 306 0 q 306 -62 306 -43 q 310 -114 307 -81 q 322 -166 314 -146 q 345 -211 330 -186 q 382 -258 359 -236 l 237 -396 q 198 -349 216 -374 q 167 -304 180 -325 q 144 -256 154 -283 q 128 -211 134 -229 q 118 -164 122 -193 q 111 -121 113 -135 q 108 -77 109 -108 q 107 -38 107 -47 q 107 0 107 -30 l 111 0 l 111 972 z "},"į":{"ha":416,"x_min":-115,"x_max":530,"o":"m 111 972 l 306 972 l 306 0 l 111 0 l 111 972 m -115 1040 l -115 1218 l 530 1218 l 530 1040 l -115 1040 z "},"İ":{"ha":416,"x_min":97,"x_max":319,"o":"m 111 972 l 306 972 l 306 0 l 111 0 l 111 972 m 97 1177 q 130 1253 97 1221 q 208 1284 163 1284 q 287 1253 255 1284 q 319 1177 319 1221 q 287 1095 319 1128 q 208 1063 255 1063 q 130 1096 163 1063 q 97 1177 97 1128 z "},"Ķ":{"ha":986,"x_min":111,"x_max":935,"o":"m 111 972 l 306 972 l 306 606 l 633 972 l 895 972 l 509 542 l 935 0 l 688 0 l 378 395 l 319 329 q 306 317 309 318 l 306 0 l 111 0 l 111 972 m 315 -314 q 359 -257 343 -286 q 382 -193 376 -229 q 391 -132 389 -157 q 392 -56 392 -106 l 586 -56 q 586 -105 586 -90 q 583 -157 585 -121 q 576 -215 581 -193 q 562 -272 572 -237 q 539 -333 553 -307 q 504 -391 526 -359 q 454 -450 482 -422 l 315 -314 z "},"ķ":{"ha":986,"x_min":111,"x_max":935,"o":"m 111 972 l 306 972 l 306 606 l 633 972 l 895 972 l 509 542 l 935 0 l 688 0 l 378 395 l 319 329 q 306 317 309 318 l 306 0 l 111 0 l 111 972 m 315 -314 q 359 -257 343 -286 q 382 -193 376 -229 q 391 -132 389 -157 q 392 -56 392 -106 l 586 -56 q 586 -105 586 -90 q 583 -157 585 -121 q 576 -215 581 -193 q 562 -272 572 -237 q 539 -333 553 -307 q 504 -391 526 -359 q 454 -450 482 -422 l 315 -314 z "},"Ĺ":{"ha":790,"x_min":111,"x_max":734,"o":"m 111 972 l 306 972 l 306 178 l 734 178 l 734 0 l 111 0 l 111 972 m 315 1032 l 376 1261 l 574 1261 l 513 1032 l 315 1032 z "},"ĺ":{"ha":790,"x_min":111,"x_max":734,"o":"m 111 972 l 306 972 l 306 178 l 734 178 l 734 0 l 111 0 l 111 972 m 315 1032 l 376 1261 l 574 1261 l 513 1032 l 315 1032 z "},"Ļ":{"ha":790,"x_min":111,"x_max":734,"o":"m 111 972 l 306 972 l 306 178 l 734 178 l 734 0 l 111 0 l 111 972 m 216 -314 q 260 -257 244 -286 q 283 -193 277 -229 q 292 -132 290 -157 q 293 -56 293 -106 l 488 -56 q 487 -114 488 -94 q 483 -175 486 -134 q 472 -244 480 -215 q 449 -311 463 -273 q 411 -383 435 -348 q 355 -450 387 -418 l 216 -314 z "},"ļ":{"ha":790,"x_min":111,"x_max":734,"o":"m 111 972 l 306 972 l 306 178 l 734 178 l 734 0 l 111 0 l 111 972 m 216 -314 q 260 -257 244 -286 q 283 -193 277 -229 q 292 -132 290 -157 q 293 -56 293 -106 l 488 -56 q 487 -114 488 -94 q 483 -175 486 -134 q 472 -244 480 -215 q 449 -311 463 -273 q 411 -383 435 -348 q 355 -450 387 -418 l 216 -314 z "},"Ľ":{"ha":790,"x_min":111,"x_max":734,"o":"m 111 972 l 306 972 l 306 178 l 734 178 l 734 0 l 111 0 l 111 972 m 122 1193 l 231 1301 l 395 1162 l 558 1301 l 667 1193 l 447 1017 l 342 1018 l 122 1193 z "},"ľ":{"ha":790,"x_min":111,"x_max":734,"o":"m 111 972 l 306 972 l 306 178 l 734 178 l 734 0 l 111 0 l 111 972 m 122 1193 l 231 1301 l 395 1162 l 558 1301 l 667 1193 l 447 1017 l 342 1018 l 122 1193 z "},"Ł":{"ha":790,"x_min":0,"x_max":734,"o":"m 111 972 l 306 972 l 306 699 l 458 825 l 458 593 l 306 465 l 306 178 l 734 178 l 734 0 l 111 0 l 111 304 l 0 211 l 0 444 l 111 536 l 111 972 z "},"ł":{"ha":790,"x_min":0,"x_max":734,"o":"m 111 972 l 306 972 l 306 699 l 458 825 l 458 593 l 306 465 l 306 178 l 734 178 l 734 0 l 111 0 l 111 304 l 0 211 l 0 444 l 111 536 l 111 972 z "},"Ń":{"ha":1031,"x_min":109,"x_max":924,"o":"m 340 972 l 743 301 l 743 972 l 921 972 l 921 4 l 924 0 l 692 0 l 290 669 l 290 0 l 111 0 l 111 968 l 109 972 l 340 972 m 435 1032 l 496 1261 l 693 1261 l 632 1032 l 435 1032 z "},"ń":{"ha":1031,"x_min":109,"x_max":924,"o":"m 340 972 l 743 301 l 743 972 l 921 972 l 921 4 l 924 0 l 692 0 l 290 669 l 290 0 l 111 0 l 111 968 l 109 972 l 340 972 m 435 1032 l 496 1261 l 693 1261 l 632 1032 l 435 1032 z "},"Ņ":{"ha":1031,"x_min":109,"x_max":924,"o":"m 340 972 l 743 301 l 743 972 l 921 972 l 921 4 l 924 0 l 692 0 l 290 669 l 290 0 l 111 0 l 111 968 l 109 972 l 340 972 m 338 -314 q 375 -266 360 -291 q 398 -221 390 -241 q 409 -169 406 -201 q 413 -117 413 -136 q 414 -56 414 -98 l 608 -56 q 608 -114 608 -94 q 604 -175 607 -134 q 592 -244 601 -215 q 570 -311 584 -273 q 532 -383 556 -348 q 476 -450 508 -418 l 338 -314 z "},"ņ":{"ha":1031,"x_min":109,"x_max":924,"o":"m 340 972 l 743 301 l 743 972 l 921 972 l 921 4 l 924 0 l 692 0 l 290 669 l 290 0 l 111 0 l 111 968 l 109 972 l 340 972 m 338 -314 q 375 -266 360 -291 q 398 -221 390 -241 q 409 -169 406 -201 q 413 -117 413 -136 q 414 -56 414 -98 l 608 -56 q 608 -114 608 -94 q 604 -175 607 -134 q 592 -244 601 -215 q 570 -311 584 -273 q 532 -383 556 -348 q 476 -450 508 -418 l 338 -314 z "},"Ň":{"ha":1031,"x_min":109,"x_max":924,"o":"m 340 972 l 743 301 l 743 972 l 921 972 l 921 4 l 924 0 l 692 0 l 290 669 l 290 0 l 111 0 l 111 968 l 109 972 l 340 972 m 243 1193 l 351 1301 l 515 1162 l 679 1301 l 787 1193 l 568 1017 l 463 1018 l 243 1193 z "},"ň":{"ha":1031,"x_min":109,"x_max":924,"o":"m 340 972 l 743 301 l 743 972 l 921 972 l 921 4 l 924 0 l 692 0 l 290 669 l 290 0 l 111 0 l 111 968 l 109 972 l 340 972 m 243 1193 l 351 1301 l 515 1162 l 679 1301 l 787 1193 l 568 1017 l 463 1018 l 243 1193 z "},"Ō":{"ha":1018,"x_min":83,"x_max":953,"o":"m 519 174 q 707 244 655 174 q 758 486 758 314 q 706 727 758 657 q 519 798 654 798 q 330 728 382 798 q 278 486 278 658 q 330 243 278 313 q 519 174 381 174 m 83 486 q 112 683 83 591 q 193 843 140 774 q 331 952 247 912 q 519 991 414 991 q 706 952 623 991 q 843 843 789 912 q 925 683 897 774 q 953 486 953 591 q 925 288 953 380 q 843 127 897 197 q 706 19 789 58 q 519 -21 623 -21 q 331 19 414 -21 q 193 127 247 58 q 112 288 140 197 q 83 486 83 380 m 231 1040 l 231 1218 l 785 1218 l 785 1040 l 231 1040 z "},"ō":{"ha":1018,"x_min":83,"x_max":953,"o":"m 519 174 q 707 244 655 174 q 758 486 758 314 q 706 727 758 657 q 519 798 654 798 q 330 728 382 798 q 278 486 278 658 q 330 243 278 313 q 519 174 381 174 m 83 486 q 112 683 83 591 q 193 843 140 774 q 331 952 247 912 q 519 991 414 991 q 706 952 623 991 q 843 843 789 912 q 925 683 897 774 q 953 486 953 591 q 925 288 953 380 q 843 127 897 197 q 706 19 789 58 q 519 -21 623 -21 q 331 19 414 -21 q 193 127 247 58 q 112 288 140 197 q 83 486 83 380 m 231 1040 l 231 1218 l 785 1218 l 785 1040 l 231 1040 z "},"Ő":{"ha":1018,"x_min":83,"x_max":953,"o":"m 519 174 q 707 244 655 174 q 758 486 758 314 q 706 727 758 657 q 519 798 654 798 q 330 728 382 798 q 278 486 278 658 q 330 243 278 313 q 519 174 381 174 m 83 486 q 112 683 83 591 q 193 843 140 774 q 331 952 247 912 q 519 991 414 991 q 706 952 623 991 q 843 843 789 912 q 925 683 897 774 q 953 486 953 591 q 925 288 953 380 q 843 127 897 197 q 706 19 789 58 q 519 -21 623 -21 q 331 19 414 -21 q 193 127 247 58 q 112 288 140 197 q 83 486 83 380 m 268 1010 l 313 1173 l 510 1173 l 465 1010 l 268 1010 m 555 1010 l 600 1173 l 798 1173 l 753 1010 l 555 1010 z "},"ő":{"ha":1018,"x_min":83,"x_max":953,"o":"m 519 174 q 707 244 655 174 q 758 486 758 314 q 706 727 758 657 q 519 798 654 798 q 330 728 382 798 q 278 486 278 658 q 330 243 278 313 q 519 174 381 174 m 83 486 q 112 683 83 591 q 193 843 140 774 q 331 952 247 912 q 519 991 414 991 q 706 952 623 991 q 843 843 789 912 q 925 683 897 774 q 953 486 953 591 q 925 288 953 380 q 843 127 897 197 q 706 19 789 58 q 519 -21 623 -21 q 331 19 414 -21 q 193 127 247 58 q 112 288 140 197 q 83 486 83 380 m 268 1010 l 313 1173 l 510 1173 l 465 1010 l 268 1010 m 555 1010 l 600 1173 l 798 1173 l 753 1010 l 555 1010 z "},"Œ":{"ha":1533,"x_min":83,"x_max":1478,"o":"m 519 174 q 707 243 656 174 q 758 486 758 313 q 707 728 758 658 q 519 798 655 798 q 330 727 382 798 q 278 486 278 657 q 330 243 278 313 q 519 174 382 174 m 83 486 q 112 683 83 591 q 193 843 140 774 q 331 952 247 912 q 519 991 414 991 q 758 922 660 991 l 758 972 l 1455 972 l 1455 775 l 953 775 l 953 612 l 1331 612 l 1331 435 l 953 435 l 953 197 l 1478 197 l 1478 0 l 758 0 l 758 49 q 519 -21 659 -21 q 331 19 414 -21 q 193 127 247 58 q 112 288 140 197 q 83 486 83 380 z "},"œ":{"ha":1533,"x_min":83,"x_max":1478,"o":"m 519 174 q 707 243 656 174 q 758 486 758 313 q 707 728 758 658 q 519 798 655 798 q 330 727 382 798 q 278 486 278 657 q 330 243 278 313 q 519 174 382 174 m 83 486 q 112 683 83 591 q 193 843 140 774 q 331 952 247 912 q 519 991 414 991 q 758 922 660 991 l 758 972 l 1455 972 l 1455 775 l 953 775 l 953 612 l 1331 612 l 1331 435 l 953 435 l 953 197 l 1478 197 l 1478 0 l 758 0 l 758 49 q 519 -21 659 -21 q 331 19 414 -21 q 193 127 247 58 q 112 288 140 197 q 83 486 83 380 z "},"Ŕ":{"ha":919,"x_min":111,"x_max":905,"o":"m 111 972 l 386 972 q 655 888 555 972 q 755 663 755 804 q 720 515 755 580 q 616 412 684 451 q 696 333 660 383 q 756 234 732 283 q 820 118 780 185 q 905 0 860 52 l 665 0 q 604 104 633 50 q 558 189 574 157 q 523 252 542 220 q 487 301 503 284 q 447 331 471 317 q 391 350 422 345 q 314 355 359 355 l 306 355 l 306 0 l 111 0 l 111 972 m 293 1032 l 354 1261 l 551 1261 l 490 1032 l 293 1032 m 306 539 l 376 539 q 522 571 482 539 q 561 663 561 602 q 524 754 561 725 q 386 783 488 783 l 306 783 l 306 539 z "},"ŕ":{"ha":919,"x_min":111,"x_max":905,"o":"m 111 972 l 386 972 q 655 888 555 972 q 755 663 755 804 q 720 515 755 580 q 616 412 684 451 q 696 333 660 383 q 756 234 732 283 q 820 118 780 185 q 905 0 860 52 l 665 0 q 604 104 633 50 q 558 189 574 157 q 523 252 542 220 q 487 301 503 284 q 447 331 471 317 q 391 350 422 345 q 314 355 359 355 l 306 355 l 306 0 l 111 0 l 111 972 m 293 1032 l 354 1261 l 551 1261 l 490 1032 l 293 1032 m 306 539 l 376 539 q 522 571 482 539 q 561 663 561 602 q 524 754 561 725 q 386 783 488 783 l 306 783 l 306 539 z "},"Ŗ":{"ha":919,"x_min":111,"x_max":905,"o":"m 111 972 l 386 972 q 655 888 555 972 q 755 663 755 804 q 720 515 755 580 q 616 412 684 451 q 696 333 660 383 q 756 234 732 283 q 820 118 780 185 q 905 0 860 52 l 665 0 q 604 104 633 50 q 558 189 574 157 q 523 252 542 220 q 487 301 503 284 q 447 331 471 317 q 391 350 422 345 q 314 355 359 355 l 306 355 l 306 0 l 111 0 l 111 972 m 281 -314 q 318 -266 303 -291 q 341 -221 333 -241 q 352 -169 349 -201 q 356 -117 356 -136 q 357 -56 357 -98 l 551 -56 q 551 -114 551 -94 q 547 -175 550 -134 q 535 -244 544 -215 q 513 -311 527 -273 q 475 -383 499 -348 q 419 -450 451 -418 l 281 -314 m 306 539 l 376 539 q 522 571 482 539 q 561 663 561 602 q 524 754 561 725 q 386 783 488 783 l 306 783 l 306 539 z "},"ŗ":{"ha":919,"x_min":111,"x_max":905,"o":"m 111 972 l 386 972 q 655 888 555 972 q 755 663 755 804 q 720 515 755 580 q 616 412 684 451 q 696 333 660 383 q 756 234 732 283 q 820 118 780 185 q 905 0 860 52 l 665 0 q 604 104 633 50 q 558 189 574 157 q 523 252 542 220 q 487 301 503 284 q 447 331 471 317 q 391 350 422 345 q 314 355 359 355 l 306 355 l 306 0 l 111 0 l 111 972 m 281 -314 q 318 -266 303 -291 q 341 -221 333 -241 q 352 -169 349 -201 q 356 -117 356 -136 q 357 -56 357 -98 l 551 -56 q 551 -114 551 -94 q 547 -175 550 -134 q 535 -244 544 -215 q 513 -311 527 -273 q 475 -383 499 -348 q 419 -450 451 -418 l 281 -314 m 306 539 l 376 539 q 522 571 482 539 q 561 663 561 602 q 524 754 561 725 q 386 783 488 783 l 306 783 l 306 539 z "},"Ř":{"ha":919,"x_min":100,"x_max":905,"o":"m 111 972 l 386 972 q 655 888 555 972 q 755 663 755 804 q 720 515 755 580 q 616 412 684 451 q 696 333 660 383 q 756 234 732 283 q 820 118 780 185 q 905 0 860 52 l 665 0 q 604 104 633 50 q 558 189 574 157 q 523 252 542 220 q 487 301 503 284 q 447 331 471 317 q 391 350 422 345 q 314 355 359 355 l 306 355 l 306 0 l 111 0 l 111 972 m 100 1193 l 208 1301 l 372 1162 l 536 1301 l 644 1193 l 425 1017 l 319 1018 l 100 1193 m 306 539 l 376 539 q 522 571 482 539 q 561 663 561 602 q 524 754 561 725 q 386 783 488 783 l 306 783 l 306 539 z "},"ř":{"ha":919,"x_min":100,"x_max":905,"o":"m 111 972 l 386 972 q 655 888 555 972 q 755 663 755 804 q 720 515 755 580 q 616 412 684 451 q 696 333 660 383 q 756 234 732 283 q 820 118 780 185 q 905 0 860 52 l 665 0 q 604 104 633 50 q 558 189 574 157 q 523 252 542 220 q 487 301 503 284 q 447 331 471 317 q 391 350 422 345 q 314 355 359 355 l 306 355 l 306 0 l 111 0 l 111 972 m 100 1193 l 208 1301 l 372 1162 l 536 1301 l 644 1193 l 425 1017 l 319 1018 l 100 1193 m 306 539 l 376 539 q 522 571 482 539 q 561 663 561 602 q 524 754 561 725 q 386 783 488 783 l 306 783 l 306 539 z "},"Ś":{"ha":922,"x_min":79,"x_max":841,"o":"m 92 332 q 250 217 151 260 q 441 174 349 175 q 560 182 525 174 q 646 265 644 200 q 627 311 646 290 q 575 347 608 332 q 499 375 542 361 q 409 403 456 389 q 314 435 361 418 q 224 476 267 452 q 149 531 182 500 q 97 605 116 561 q 79 703 79 649 q 104 820 80 768 q 166 904 128 871 q 256 957 205 936 q 358 986 307 978 q 461 994 408 995 q 760 907 608 989 l 760 673 q 460 800 585 797 q 380 797 413 801 q 323 782 348 793 q 286 751 298 770 q 273 701 274 731 q 292 658 273 677 q 343 625 311 639 q 419 598 376 611 q 509 570 462 585 q 604 539 556 556 q 694 497 651 522 q 769 441 736 472 q 822 364 802 410 q 840 264 841 319 q 823 165 840 210 q 782 92 807 121 q 721 41 758 63 q 650 8 685 20 q 574 -11 616 -3 q 503 -19 532 -18 q 441 -21 473 -21 q 266 7 359 -20 q 92 82 172 34 l 92 332 m 380 1032 l 441 1261 l 639 1261 l 578 1032 l 380 1032 z "},"ś":{"ha":922,"x_min":79,"x_max":841,"o":"m 92 332 q 250 217 151 260 q 441 174 349 175 q 560 182 525 174 q 646 265 644 200 q 627 311 646 290 q 575 347 608 332 q 499 375 542 361 q 409 403 456 389 q 314 435 361 418 q 224 476 267 452 q 149 531 182 500 q 97 605 116 561 q 79 703 79 649 q 104 820 80 768 q 166 904 128 871 q 256 957 205 936 q 358 986 307 978 q 461 994 408 995 q 760 907 608 989 l 760 673 q 460 800 585 797 q 380 797 413 801 q 323 782 348 793 q 286 751 298 770 q 273 701 274 731 q 292 658 273 677 q 343 625 311 639 q 419 598 376 611 q 509 570 462 585 q 604 539 556 556 q 694 497 651 522 q 769 441 736 472 q 822 364 802 410 q 840 264 841 319 q 823 165 840 210 q 782 92 807 121 q 721 41 758 63 q 650 8 685 20 q 574 -11 616 -3 q 503 -19 532 -18 q 441 -21 473 -21 q 266 7 359 -20 q 92 82 172 34 l 92 332 m 380 1032 l 441 1261 l 639 1261 l 578 1032 l 380 1032 z "},"Ş":{"ha":922,"x_min":79,"x_max":841,"o":"m 92 332 q 250 217 151 260 q 441 174 349 175 q 560 182 525 174 q 646 265 644 200 q 627 311 646 290 q 575 347 608 332 q 499 375 542 361 q 409 403 456 389 q 314 435 361 418 q 224 476 267 452 q 149 531 182 500 q 97 605 116 561 q 79 703 79 649 q 104 820 80 768 q 166 904 128 871 q 256 957 205 936 q 358 986 307 978 q 461 994 408 995 q 760 907 608 989 l 760 673 q 460 800 585 797 q 380 797 413 801 q 323 782 348 793 q 286 751 298 770 q 273 701 274 731 q 292 658 273 677 q 343 625 311 639 q 419 598 376 611 q 509 570 462 585 q 604 539 556 556 q 694 497 651 522 q 769 441 736 472 q 822 364 802 410 q 840 264 841 319 q 825 170 840 212 q 788 99 811 127 q 733 48 766 71 q 668 14 701 26 q 596 -7 635 1 q 595 -65 596 -43 q 591 -125 595 -87 q 579 -193 587 -163 q 556 -258 570 -222 q 519 -329 543 -294 q 464 -395 495 -363 l 325 -258 q 388 -156 374 -208 q 401 -20 401 -104 q 92 82 235 -3 l 92 332 z "},"ş":{"ha":922,"x_min":79,"x_max":841,"o":"m 92 332 q 250 217 151 260 q 441 174 349 175 q 560 182 525 174 q 646 265 644 200 q 627 311 646 290 q 575 347 608 332 q 499 375 542 361 q 409 403 456 389 q 314 435 361 418 q 224 476 267 452 q 149 531 182 500 q 97 605 116 561 q 79 703 79 649 q 104 820 80 768 q 166 904 128 871 q 256 957 205 936 q 358 986 307 978 q 461 994 408 995 q 760 907 608 989 l 760 673 q 460 800 585 797 q 380 797 413 801 q 323 782 348 793 q 286 751 298 770 q 273 701 274 731 q 292 658 273 677 q 343 625 311 639 q 419 598 376 611 q 509 570 462 585 q 604 539 556 556 q 694 497 651 522 q 769 441 736 472 q 822 364 802 410 q 840 264 841 319 q 825 170 840 212 q 788 99 811 127 q 733 48 766 71 q 668 14 701 26 q 596 -7 635 1 q 595 -65 596 -43 q 591 -125 595 -87 q 579 -193 587 -163 q 556 -258 570 -222 q 519 -329 543 -294 q 464 -395 495 -363 l 325 -258 q 388 -156 374 -208 q 401 -20 401 -104 q 92 82 235 -3 l 92 332 z "},"Š":{"ha":922,"x_min":79,"x_max":841,"o":"m 92 332 q 250 217 151 260 q 441 174 349 175 q 560 182 525 174 q 646 265 644 200 q 627 311 646 290 q 575 347 608 332 q 499 375 542 361 q 409 403 456 389 q 314 435 361 418 q 224 476 267 452 q 149 531 182 500 q 97 605 116 561 q 79 703 79 649 q 104 820 80 768 q 166 904 128 871 q 256 957 205 936 q 358 986 307 978 q 461 994 408 995 q 760 907 608 989 l 760 673 q 460 800 585 797 q 380 797 413 801 q 323 782 348 793 q 286 751 298 770 q 273 701 274 731 q 292 658 273 677 q 343 625 311 639 q 419 598 376 611 q 509 570 462 585 q 604 539 556 556 q 694 497 651 522 q 769 441 736 472 q 822 364 802 410 q 840 264 841 319 q 823 165 840 210 q 782 92 807 121 q 721 41 758 63 q 650 8 685 20 q 574 -11 616 -3 q 503 -19 532 -18 q 441 -21 473 -21 q 266 7 359 -20 q 92 82 172 34 l 92 332 m 187 1193 l 296 1301 l 460 1162 l 624 1301 l 732 1193 l 513 1017 l 407 1018 l 187 1193 z "},"š":{"ha":922,"x_min":79,"x_max":841,"o":"m 92 332 q 250 217 151 260 q 441 174 349 175 q 560 182 525 174 q 646 265 644 200 q 627 311 646 290 q 575 347 608 332 q 499 375 542 361 q 409 403 456 389 q 314 435 361 418 q 224 476 267 452 q 149 531 182 500 q 97 605 116 561 q 79 703 79 649 q 104 820 80 768 q 166 904 128 871 q 256 957 205 936 q 358 986 307 978 q 461 994 408 995 q 760 907 608 989 l 760 673 q 460 800 585 797 q 380 797 413 801 q 323 782 348 793 q 286 751 298 770 q 273 701 274 731 q 292 658 273 677 q 343 625 311 639 q 419 598 376 611 q 509 570 462 585 q 604 539 556 556 q 694 497 651 522 q 769 441 736 472 q 822 364 802 410 q 840 264 841 319 q 823 165 840 210 q 782 92 807 121 q 721 41 758 63 q 650 8 685 20 q 574 -11 616 -3 q 503 -19 532 -18 q 441 -21 473 -21 q 266 7 359 -20 q 92 82 172 34 l 92 332 m 187 1193 l 296 1301 l 460 1162 l 624 1301 l 732 1193 l 513 1017 l 407 1018 l 187 1193 z "},"Ţ":{"ha":844,"x_min":35,"x_max":810,"o":"m 810 972 l 810 778 l 519 778 l 519 0 q 519 -59 519 -39 q 515 -119 518 -79 q 504 -189 512 -160 q 481 -256 495 -218 q 443 -328 467 -293 q 387 -396 419 -363 l 249 -258 q 286 -211 271 -236 q 309 -166 301 -186 q 320 -114 317 -146 q 325 -62 324 -81 q 325 0 325 -43 l 325 778 l 35 778 l 35 972 l 810 972 z "},"ţ":{"ha":844,"x_min":35,"x_max":810,"o":"m 810 972 l 810 778 l 519 778 l 519 0 l 562 0 q 562 -50 562 -34 q 559 -101 562 -65 q 552 -159 557 -137 q 538 -216 548 -181 q 515 -277 529 -251 q 480 -335 502 -304 q 431 -395 458 -367 l 292 -258 q 336 -202 319 -230 q 359 -137 352 -174 q 367 -76 366 -101 q 368 0 368 -51 l 325 0 l 325 778 l 35 778 l 35 972 l 810 972 z "},"Ť":{"ha":844,"x_min":35,"x_max":810,"o":"m 810 972 l 810 778 l 519 778 l 519 0 l 325 0 l 325 778 l 35 778 l 35 972 l 810 972 m 149 1193 l 257 1301 l 421 1162 l 585 1301 l 693 1193 l 473 1017 l 368 1018 l 149 1193 z "},"ť":{"ha":844,"x_min":35,"x_max":810,"o":"m 810 972 l 810 778 l 519 778 l 519 0 l 325 0 l 325 778 l 35 778 l 35 972 l 810 972 m 149 1193 l 257 1301 l 421 1162 l 585 1301 l 693 1193 l 473 1017 l 368 1018 l 149 1193 z "},"Ũ":{"ha":1075,"x_min":111,"x_max":964,"o":"m 770 972 l 964 972 l 964 440 q 853 96 964 212 q 539 -20 743 -20 q 222 96 332 -20 q 111 440 111 212 l 111 972 l 306 972 l 306 440 q 361 236 306 298 q 539 175 416 175 q 714 237 659 175 q 770 440 770 298 l 770 972 m 268 1071 q 309 1197 268 1139 q 419 1271 351 1254 q 576 1236 488 1288 q 632 1272 632 1202 l 794 1272 q 752 1145 794 1204 q 643 1068 711 1086 q 490 1099 576 1050 q 452 1115 466 1114 q 434 1104 439 1115 q 429 1071 429 1093 l 268 1071 z "},"ũ":{"ha":1075,"x_min":111,"x_max":964,"o":"m 770 972 l 964 972 l 964 440 q 853 96 964 212 q 539 -20 743 -20 q 222 96 332 -20 q 111 440 111 212 l 111 972 l 306 972 l 306 440 q 361 236 306 298 q 539 175 416 175 q 714 237 659 175 q 770 440 770 298 l 770 972 m 268 1071 q 309 1197 268 1139 q 419 1271 351 1254 q 576 1236 488 1288 q 632 1272 632 1202 l 794 1272 q 752 1145 794 1204 q 643 1068 711 1086 q 490 1099 576 1050 q 452 1115 466 1114 q 434 1104 439 1115 q 429 1071 429 1093 l 268 1071 z "},"Ū":{"ha":1075,"x_min":111,"x_max":964,"o":"m 770 972 l 964 972 l 964 440 q 853 96 964 212 q 539 -20 743 -20 q 222 96 332 -20 q 111 440 111 212 l 111 972 l 306 972 l 306 440 q 361 236 306 298 q 539 175 416 175 q 714 237 659 175 q 770 440 770 298 l 770 972 m 260 1040 l 260 1218 l 814 1218 l 814 1040 l 260 1040 z "},"ū":{"ha":1075,"x_min":111,"x_max":964,"o":"m 770 972 l 964 972 l 964 440 q 853 96 964 212 q 539 -20 743 -20 q 222 96 332 -20 q 111 440 111 212 l 111 972 l 306 972 l 306 440 q 361 236 306 298 q 539 175 416 175 q 714 237 659 175 q 770 440 770 298 l 770 972 m 260 1040 l 260 1218 l 814 1218 l 814 1040 l 260 1040 z "},"Ů":{"ha":1075,"x_min":111,"x_max":964,"o":"m 770 972 l 964 972 l 964 440 q 853 96 964 212 q 539 -20 743 -20 q 222 96 332 -20 q 111 440 111 212 l 111 972 l 306 972 l 306 440 q 361 236 306 298 q 539 175 416 175 q 714 237 659 175 q 770 440 770 298 l 770 972 m 400 1083 q 372 1112 400 1083 q 343 1219 343 1140 q 400 1356 343 1299 q 536 1413 457 1413 q 673 1356 616 1413 q 730 1219 730 1299 q 673 1083 730 1140 q 536 1026 616 1026 q 400 1083 457 1026 m 467 1219 q 536 1149 467 1149 q 607 1219 607 1149 q 536 1291 607 1291 q 467 1219 467 1291 z "},"ů":{"ha":1075,"x_min":111,"x_max":964,"o":"m 770 972 l 964 972 l 964 440 q 853 96 964 212 q 539 -20 743 -20 q 222 96 332 -20 q 111 440 111 212 l 111 972 l 306 972 l 306 440 q 361 236 306 298 q 539 175 416 175 q 714 237 659 175 q 770 440 770 298 l 770 972 m 400 1083 q 372 1112 400 1083 q 343 1219 343 1140 q 400 1356 343 1299 q 536 1413 457 1413 q 673 1356 616 1413 q 730 1219 730 1299 q 673 1083 730 1140 q 536 1026 616 1026 q 400 1083 457 1026 m 467 1219 q 536 1149 467 1149 q 607 1219 607 1149 q 536 1291 607 1291 q 467 1219 467 1291 z "},"Ű":{"ha":1075,"x_min":111,"x_max":964,"o":"m 770 972 l 964 972 l 964 440 q 853 96 964 212 q 539 -20 743 -20 q 222 96 332 -20 q 111 440 111 212 l 111 972 l 306 972 l 306 440 q 361 236 306 298 q 539 175 416 175 q 714 237 659 175 q 770 440 770 298 l 770 972 m 297 1010 l 342 1173 l 539 1173 l 494 1010 l 297 1010 m 585 1010 l 629 1173 l 827 1173 l 782 1010 l 585 1010 z "},"ű":{"ha":1075,"x_min":111,"x_max":964,"o":"m 770 972 l 964 972 l 964 440 q 853 96 964 212 q 539 -20 743 -20 q 222 96 332 -20 q 111 440 111 212 l 111 972 l 306 972 l 306 440 q 361 236 306 298 q 539 175 416 175 q 714 237 659 175 q 770 440 770 298 l 770 972 m 297 1010 l 342 1173 l 539 1173 l 494 1010 l 297 1010 m 585 1010 l 629 1173 l 827 1173 l 782 1010 l 585 1010 z "},"Ų":{"ha":1075,"x_min":111,"x_max":964,"o":"m 770 972 l 964 972 l 964 440 q 898 156 964 265 q 707 5 831 47 q 708 -69 707 -43 q 717 -129 710 -95 q 740 -191 724 -163 q 783 -245 756 -218 l 639 -383 q 568 -291 596 -339 q 528 -192 540 -242 q 512 -105 516 -142 q 509 -20 509 -68 q 214 104 316 -12 q 111 440 111 220 l 111 972 l 306 972 l 306 440 q 361 236 306 298 q 539 175 416 175 q 714 237 659 175 q 770 440 770 298 l 770 972 z "},"ų":{"ha":1075,"x_min":111,"x_max":964,"o":"m 770 972 l 964 972 l 964 440 q 898 156 964 265 q 707 5 831 47 q 708 -69 707 -43 q 717 -129 710 -95 q 740 -191 724 -163 q 783 -245 756 -218 l 639 -383 q 568 -291 596 -339 q 528 -192 540 -242 q 512 -105 516 -142 q 509 -20 509 -68 q 214 104 316 -12 q 111 440 111 220 l 111 972 l 306 972 l 306 440 q 361 236 306 298 q 539 175 416 175 q 714 237 659 175 q 770 440 770 298 l 770 972 z "},"Ŵ":{"ha":1383,"x_min":14,"x_max":1369,"o":"m 272 0 l 14 971 l 211 971 l 390 294 l 587 971 l 782 971 l 986 289 l 1173 971 l 1369 971 l 1105 0 l 876 0 l 686 633 l 501 0 l 272 0 m 419 1120 l 639 1296 l 745 1296 l 964 1120 l 856 1013 l 692 1150 l 528 1013 l 419 1120 z "},"ŵ":{"ha":1383,"x_min":14,"x_max":1369,"o":"m 272 0 l 14 971 l 211 971 l 390 294 l 587 971 l 782 971 l 986 289 l 1173 971 l 1369 971 l 1105 0 l 876 0 l 686 633 l 501 0 l 272 0 m 419 1120 l 639 1296 l 745 1296 l 964 1120 l 856 1013 l 692 1150 l 528 1013 l 419 1120 z "},"Ŷ":{"ha":924,"x_min":14,"x_max":911,"o":"m 557 0 l 363 0 l 363 323 l 14 971 l 235 971 l 468 539 l 707 972 l 911 972 l 557 332 l 557 0 m 189 1120 l 408 1296 l 514 1296 l 733 1120 l 625 1013 l 461 1150 l 297 1013 l 189 1120 z "},"ŷ":{"ha":924,"x_min":14,"x_max":911,"o":"m 557 0 l 363 0 l 363 323 l 14 971 l 235 971 l 468 539 l 707 972 l 911 972 l 557 332 l 557 0 m 189 1120 l 408 1296 l 514 1296 l 733 1120 l 625 1013 l 461 1150 l 297 1013 l 189 1120 z "},"Ÿ":{"ha":924,"x_min":14,"x_max":911,"o":"m 557 0 l 363 0 l 363 323 l 14 971 l 235 971 l 468 539 l 707 972 l 911 972 l 557 332 l 557 0 m 118 1137 q 151 1214 118 1182 q 229 1246 184 1246 q 308 1214 276 1246 q 340 1137 340 1182 q 308 1056 340 1088 q 229 1023 276 1023 q 151 1056 184 1023 q 118 1137 118 1089 m 585 1137 q 618 1214 585 1182 q 696 1246 651 1246 q 775 1214 743 1246 q 807 1137 807 1182 q 775 1056 807 1088 q 696 1023 743 1023 q 617 1056 650 1023 q 585 1137 585 1089 z "},"Ź":{"ha":966,"x_min":111,"x_max":856,"o":"m 848 972 l 848 794 l 355 178 l 856 178 l 856 0 l 111 0 l 111 178 l 606 794 l 132 794 l 132 972 l 848 972 m 403 1032 l 464 1261 l 661 1261 l 600 1032 l 403 1032 z "},"ź":{"ha":966,"x_min":111,"x_max":856,"o":"m 848 972 l 848 794 l 355 178 l 856 178 l 856 0 l 111 0 l 111 178 l 606 794 l 132 794 l 132 972 l 848 972 m 403 1032 l 464 1261 l 661 1261 l 600 1032 l 403 1032 z "},"Ż":{"ha":966,"x_min":111,"x_max":856,"o":"m 848 972 l 848 794 l 355 178 l 856 178 l 856 0 l 111 0 l 111 178 l 606 794 l 132 794 l 132 972 l 848 972 m 372 1177 q 406 1253 372 1221 q 484 1284 439 1284 q 563 1253 530 1284 q 595 1177 595 1221 q 563 1095 595 1128 q 484 1063 530 1063 q 405 1096 438 1063 q 372 1177 372 1128 z "},"ż":{"ha":966,"x_min":111,"x_max":856,"o":"m 848 972 l 848 794 l 355 178 l 856 178 l 856 0 l 111 0 l 111 178 l 606 794 l 132 794 l 132 972 l 848 972 m 372 1177 q 406 1253 372 1221 q 484 1284 439 1284 q 563 1253 530 1284 q 595 1177 595 1221 q 563 1095 595 1128 q 484 1063 530 1063 q 405 1096 438 1063 q 372 1177 372 1128 z "},"Ž":{"ha":966,"x_min":111,"x_max":856,"o":"m 848 972 l 848 794 l 355 178 l 856 178 l 856 0 l 111 0 l 111 178 l 606 794 l 132 794 l 132 972 l 848 972 m 210 1193 l 318 1301 l 482 1162 l 646 1301 l 754 1193 l 534 1017 l 429 1018 l 210 1193 z "},"ž":{"ha":966,"x_min":111,"x_max":856,"o":"m 848 972 l 848 794 l 355 178 l 856 178 l 856 0 l 111 0 l 111 178 l 606 794 l 132 794 l 132 972 l 848 972 m 210 1193 l 318 1301 l 482 1162 l 646 1301 l 754 1193 l 534 1017 l 429 1018 l 210 1193 z "},"Ș":{"ha":922,"x_min":79,"x_max":841,"o":"m 92 332 q 250 217 151 260 q 441 174 349 175 q 560 182 525 174 q 646 265 644 200 q 627 311 646 290 q 575 347 608 332 q 499 375 542 361 q 409 403 456 389 q 314 435 361 418 q 224 476 267 452 q 149 531 182 500 q 97 605 116 561 q 79 703 79 649 q 104 820 80 768 q 166 904 128 871 q 256 957 205 936 q 358 986 307 978 q 461 994 408 995 q 760 907 608 989 l 760 673 q 460 800 585 797 q 380 797 413 801 q 323 782 348 793 q 286 751 298 770 q 273 701 274 731 q 292 658 273 677 q 343 625 311 639 q 419 598 376 611 q 509 570 462 585 q 604 539 556 556 q 694 497 651 522 q 769 441 736 472 q 822 364 802 410 q 840 264 841 319 q 823 165 840 210 q 782 92 807 121 q 721 41 758 63 q 650 8 685 20 q 574 -11 616 -3 q 503 -19 532 -18 q 441 -21 473 -21 q 266 7 359 -20 q 92 82 172 34 l 92 332 m 282 -314 q 319 -266 304 -291 q 342 -221 334 -241 q 354 -169 350 -201 q 358 -117 357 -136 q 358 -56 358 -98 l 553 -56 q 552 -105 553 -90 q 550 -157 552 -121 q 543 -215 547 -193 q 529 -272 538 -237 q 506 -333 519 -307 q 471 -391 492 -359 q 421 -450 449 -422 l 282 -314 z "},"ș":{"ha":922,"x_min":79,"x_max":841,"o":"m 92 332 q 250 217 151 260 q 441 174 349 175 q 560 182 525 174 q 646 265 644 200 q 627 311 646 290 q 575 347 608 332 q 499 375 542 361 q 409 403 456 389 q 314 435 361 418 q 224 476 267 452 q 149 531 182 500 q 97 605 116 561 q 79 703 79 649 q 104 820 80 768 q 166 904 128 871 q 256 957 205 936 q 358 986 307 978 q 461 994 408 995 q 760 907 608 989 l 760 673 q 460 800 585 797 q 380 797 413 801 q 323 782 348 793 q 286 751 298 770 q 273 701 274 731 q 292 658 273 677 q 343 625 311 639 q 419 598 376 611 q 509 570 462 585 q 604 539 556 556 q 694 497 651 522 q 769 441 736 472 q 822 364 802 410 q 840 264 841 319 q 823 165 840 210 q 782 92 807 121 q 721 41 758 63 q 650 8 685 20 q 574 -11 616 -3 q 503 -19 532 -18 q 441 -21 473 -21 q 266 7 359 -20 q 92 82 172 34 l 92 332 m 282 -314 q 319 -266 304 -291 q 342 -221 334 -241 q 354 -169 350 -201 q 358 -117 357 -136 q 358 -56 358 -98 l 553 -56 q 552 -105 553 -90 q 550 -157 552 -121 q 543 -215 547 -193 q 529 -272 538 -237 q 506 -333 519 -307 q 471 -391 492 -359 q 421 -450 449 -422 l 282 -314 z "},"Ț":{"ha":844,"x_min":35,"x_max":810,"o":"m 810 972 l 810 778 l 519 778 l 519 0 l 325 0 l 325 778 l 35 778 l 35 972 l 810 972 m 249 -314 q 286 -266 271 -291 q 309 -221 301 -241 q 320 -169 317 -201 q 325 -117 324 -136 q 325 -56 325 -98 l 519 -56 q 519 -114 519 -94 q 515 -175 518 -134 q 504 -244 512 -215 q 481 -311 495 -273 q 443 -383 467 -348 q 387 -450 419 -418 l 249 -314 z "},"ț":{"ha":844,"x_min":35,"x_max":810,"o":"m 810 972 l 810 778 l 519 778 l 519 0 l 325 0 l 325 778 l 35 778 l 35 972 l 810 972 m 249 -314 q 286 -266 271 -291 q 309 -221 301 -241 q 320 -169 317 -201 q 325 -117 324 -136 q 325 -56 325 -98 l 519 -56 q 519 -114 519 -94 q 515 -175 518 -134 q 504 -244 512 -215 q 481 -311 495 -273 q 443 -383 467 -348 q 387 -450 419 -418 l 249 -314 z "},"̀":{"ha":0,"x_min":110,"x_max":397,"o":"m 168 947 l 110 1156 l 339 1156 l 397 947 l 168 947 z "},"́":{"ha":0,"x_min":139,"x_max":397,"o":"m 336 947 l 139 947 l 200 1177 l 397 1177 l 336 947 z "},"̂":{"ha":0,"x_min":139,"x_max":684,"o":"m 684 935 l 575 828 l 411 965 l 248 828 l 139 935 l 358 1111 l 464 1111 l 684 935 z "},"̃":{"ha":0,"x_min":227,"x_max":753,"o":"m 753 1111 q 711 984 753 1042 q 602 907 669 925 q 449 937 534 888 q 411 953 425 953 q 392 943 397 954 q 387 909 387 932 l 227 909 q 268 1035 227 978 q 377 1109 309 1093 q 534 1075 446 1126 q 590 1111 590 1040 l 753 1111 z "},"̄":{"ha":0,"x_min":139,"x_max":693,"o":"m 139 1111 l 693 1111 l 693 933 l 139 933 l 139 1111 z "},"̆":{"ha":0,"x_min":126,"x_max":742,"o":"m 742 1111 q 735 1044 742 1080 q 706 966 728 1009 q 652 889 685 923 q 563 833 620 856 q 435 810 507 810 q 338 822 382 810 q 262 853 293 833 q 207 900 231 873 q 168 954 182 926 q 143 1011 153 981 q 130 1065 134 1041 q 126 1111 126 1089 l 304 1111 q 309 1066 304 1086 q 327 1028 314 1047 q 367 998 340 1008 q 435 987 395 987 q 502 998 475 987 q 541 1028 528 1008 q 559 1066 554 1047 q 564 1111 564 1086 l 742 1111 z "},"̇":{"ha":0,"x_min":139,"x_max":361,"o":"m 250 889 q 172 922 205 889 q 139 1003 139 955 q 172 1079 139 1048 q 250 1111 205 1111 q 329 1079 297 1111 q 361 1003 361 1048 q 329 922 361 954 q 250 889 297 889 z "},"̈":{"ha":0,"x_min":139,"x_max":828,"o":"m 717 917 q 638 950 671 917 q 606 1031 606 983 q 639 1107 606 1076 q 717 1139 672 1139 q 796 1107 764 1139 q 828 1031 828 1076 q 796 949 828 982 q 717 917 764 917 m 139 1031 q 172 1107 139 1076 q 250 1139 205 1139 q 329 1107 297 1139 q 361 1031 361 1076 q 329 949 361 982 q 250 917 297 917 q 172 950 205 917 q 139 1031 139 983 z "},"̊":{"ha":0,"x_min":139,"x_max":526,"o":"m 332 946 q 403 1017 403 946 q 332 1088 403 1088 q 262 1017 262 1088 q 332 946 262 946 m 196 880 q 167 909 196 880 q 139 1017 139 937 q 196 1153 139 1096 q 332 1210 252 1210 q 469 1153 412 1210 q 526 1017 526 1096 q 469 880 526 937 q 332 823 412 823 q 196 880 252 823 z "},"̋":{"ha":0,"x_min":139,"x_max":668,"o":"m 336 947 l 139 947 l 183 1109 l 380 1109 l 336 947 m 427 947 l 471 1109 l 668 1109 l 624 947 l 427 947 z "},"̌":{"ha":0,"x_min":139,"x_max":684,"o":"m 684 943 l 464 766 l 358 768 l 139 943 l 248 1051 l 411 913 l 575 1051 l 684 943 z "},"̒":{"ha":0,"x_min":279,"x_max":550,"o":"m 550 981 q 506 924 522 952 q 483 859 490 895 q 475 798 476 823 q 473 721 473 772 l 279 721 q 280 770 279 755 q 282 822 280 786 q 289 879 285 857 q 303 936 294 901 q 327 997 313 970 q 362 1054 340 1023 q 411 1114 383 1086 l 550 981 z "},"̦":{"ha":0,"x_min":278,"x_max":549,"o":"m 278 -296 q 315 -248 300 -273 q 338 -203 330 -222 q 350 -151 346 -183 q 354 -99 353 -118 q 354 -37 354 -79 l 549 -37 q 548 -96 549 -76 q 544 -156 547 -116 q 533 -226 541 -197 q 510 -292 524 -255 q 472 -365 496 -330 q 416 -432 448 -399 l 278 -296 z "},"̧":{"ha":0,"x_min":278,"x_max":549,"o":"m 278 -296 q 315 -248 300 -273 q 338 -203 330 -222 q 350 -151 346 -183 q 354 -99 353 -118 q 354 -37 354 -79 l 549 -37 q 548 -96 549 -76 q 544 -156 547 -116 q 533 -226 541 -197 q 510 -292 524 -255 q 472 -365 496 -330 q 416 -432 448 -399 l 278 -296 z "},"̨":{"ha":0,"x_min":273,"x_max":549,"o":"m 404 -396 q 355 -336 376 -368 q 320 -278 334 -304 q 296 -216 306 -252 q 282 -159 287 -181 q 276 -101 278 -138 q 274 -50 274 -64 q 273 0 273 -35 l 472 0 q 473 -77 472 -52 q 481 -139 475 -102 q 505 -203 488 -175 q 549 -258 521 -231 l 404 -396 z "},"̵":{"ha":0,"x_min":139,"x_max":693,"o":"m 139 510 l 693 510 l 693 332 l 139 332 l 139 510 z "},"̶":{"ha":0,"x_min":140,"x_max":974,"o":"m 140 510 l 974 510 l 974 332 l 140 332 l 140 510 z "},"̷":{"ha":0,"x_min":45,"x_max":619,"o":"m 253 147 l 45 147 l 411 762 l 619 762 l 253 147 z "},"̸":{"ha":0,"x_min":21,"x_max":852,"o":"m 228 -40 l 21 -40 l 644 1006 l 852 1006 l 228 -40 z "},"Ẁ":{"ha":1383,"x_min":14,"x_max":1369,"o":"m 272 0 l 14 971 l 211 971 l 390 294 l 587 971 l 782 971 l 986 289 l 1173 971 l 1369 971 l 1105 0 l 876 0 l 686 633 l 501 0 l 272 0 m 514 1278 l 743 1278 l 802 1069 l 572 1069 l 514 1278 z "},"ẁ":{"ha":1383,"x_min":14,"x_max":1369,"o":"m 272 0 l 14 971 l 211 971 l 390 294 l 587 971 l 782 971 l 986 289 l 1173 971 l 1369 971 l 1105 0 l 876 0 l 686 633 l 501 0 l 272 0 m 514 1278 l 743 1278 l 802 1069 l 572 1069 l 514 1278 z "},"Ẃ":{"ha":1383,"x_min":14,"x_max":1369,"o":"m 272 0 l 14 971 l 211 971 l 390 294 l 587 971 l 782 971 l 986 289 l 1173 971 l 1369 971 l 1105 0 l 876 0 l 686 633 l 501 0 l 272 0 m 589 1032 l 650 1261 l 847 1261 l 786 1032 l 589 1032 z "},"ẃ":{"ha":1383,"x_min":14,"x_max":1369,"o":"m 272 0 l 14 971 l 211 971 l 390 294 l 587 971 l 782 971 l 986 289 l 1173 971 l 1369 971 l 1105 0 l 876 0 l 686 633 l 501 0 l 272 0 m 611 1032 l 672 1261 l 869 1261 l 808 1032 l 611 1032 z "},"Ẅ":{"ha":1383,"x_min":14,"x_max":1369,"o":"m 272 0 l 14 971 l 211 971 l 390 294 l 587 971 l 782 971 l 986 289 l 1173 971 l 1369 971 l 1105 0 l 876 0 l 686 633 l 501 0 l 272 0 m 347 1137 q 380 1214 347 1182 q 458 1246 414 1246 q 537 1214 505 1246 q 570 1137 570 1182 q 537 1056 570 1088 q 458 1023 505 1023 q 380 1056 413 1023 q 347 1137 347 1089 m 814 1137 q 847 1214 814 1182 q 925 1246 880 1246 q 1004 1214 972 1246 q 1036 1137 1036 1182 q 1004 1056 1036 1088 q 925 1023 972 1023 q 847 1056 880 1023 q 814 1137 814 1089 z "},"ẅ":{"ha":1383,"x_min":14,"x_max":1369,"o":"m 272 0 l 14 971 l 211 971 l 390 294 l 587 971 l 782 971 l 986 289 l 1173 971 l 1369 971 l 1105 0 l 876 0 l 686 633 l 501 0 l 272 0 m 347 1137 q 380 1214 347 1182 q 458 1246 414 1246 q 537 1214 505 1246 q 570 1137 570 1182 q 537 1056 570 1088 q 458 1023 505 1023 q 380 1056 413 1023 q 347 1137 347 1089 m 814 1137 q 847 1214 814 1182 q 925 1246 880 1246 q 1004 1214 972 1246 q 1036 1137 1036 1182 q 1004 1056 1036 1088 q 925 1023 972 1023 q 847 1056 880 1023 q 814 1137 814 1089 z "},"Ẽ":{"ha":886,"x_min":111,"x_max":831,"o":"m 111 0 l 111 972 l 808 972 l 808 775 l 306 775 l 306 612 l 684 612 l 684 435 l 306 435 l 306 197 l 831 197 l 831 0 l 111 0 m 193 1071 q 235 1197 193 1139 q 344 1271 276 1254 q 501 1236 412 1288 q 557 1272 557 1202 l 720 1272 q 678 1145 720 1204 q 568 1068 636 1086 q 415 1099 500 1050 q 377 1115 391 1114 q 359 1104 363 1115 q 354 1071 354 1093 l 193 1071 z "},"ẽ":{"ha":886,"x_min":111,"x_max":831,"o":"m 111 0 l 111 972 l 808 972 l 808 775 l 306 775 l 306 612 l 684 612 l 684 435 l 306 435 l 306 197 l 831 197 l 831 0 l 111 0 m 193 1071 q 235 1197 193 1139 q 344 1271 276 1254 q 501 1236 412 1288 q 557 1272 557 1202 l 720 1272 q 678 1145 720 1204 q 568 1068 636 1086 q 415 1099 500 1050 q 377 1115 391 1114 q 359 1104 363 1115 q 354 1071 354 1093 l 193 1071 z "},"Ỳ":{"ha":924,"x_min":14,"x_max":911,"o":"m 557 0 l 363 0 l 363 323 l 14 971 l 235 971 l 468 539 l 707 972 l 911 972 l 557 332 l 557 0 m 285 1278 l 514 1278 l 572 1069 l 343 1069 l 285 1278 z "},"ỳ":{"ha":924,"x_min":14,"x_max":911,"o":"m 557 0 l 363 0 l 363 323 l 14 971 l 235 971 l 468 539 l 707 972 l 911 972 l 557 332 l 557 0 m 285 1278 l 514 1278 l 572 1069 l 343 1069 l 285 1278 z "},"Ỹ":{"ha":924,"x_min":14,"x_max":911,"o":"m 557 0 l 363 0 l 363 323 l 14 971 l 235 971 l 468 539 l 707 972 l 911 972 l 557 332 l 557 0 m 193 1071 q 235 1197 193 1139 q 344 1271 276 1254 q 501 1236 412 1288 q 557 1272 557 1202 l 720 1272 q 678 1145 720 1204 q 568 1068 636 1086 q 415 1099 500 1050 q 377 1115 391 1114 q 359 1104 363 1115 q 354 1071 354 1093 l 193 1071 z "},"ỹ":{"ha":924,"x_min":14,"x_max":911,"o":"m 557 0 l 363 0 l 363 323 l 14 971 l 235 971 l 468 539 l 707 972 l 911 972 l 557 332 l 557 0 m 193 1071 q 235 1197 193 1139 q 344 1271 276 1254 q 501 1236 412 1288 q 557 1272 557 1202 l 720 1272 q 678 1145 720 1204 q 568 1068 636 1086 q 415 1099 500 1050 q 377 1115 391 1114 q 359 1104 363 1115 q 354 1071 354 1093 l 193 1071 z "},"–":{"ha":833,"x_min":83,"x_max":750,"o":"m 83 525 l 750 525 l 750 328 l 83 328 l 83 525 z "},"—":{"ha":1000,"x_min":83,"x_max":917,"o":"m 83 525 l 917 525 l 917 328 l 83 328 l 83 525 z "},"‘":{"ha":441,"x_min":83,"x_max":358,"o":"m 281 669 l 83 669 l 161 972 l 358 972 l 281 669 z "},"’":{"ha":441,"x_min":83,"x_max":358,"o":"m 281 669 l 83 669 l 161 972 l 358 972 l 281 669 z "},"‚":{"ha":395,"x_min":41,"x_max":313,"o":"m 41 -47 q 85 9 69 -19 q 109 74 102 37 q 117 135 115 110 q 118 211 118 160 l 313 211 q 312 152 313 172 q 308 92 311 132 q 297 23 305 52 q 274 -43 288 -6 q 236 -116 260 -81 q 180 -183 212 -151 l 41 -47 z "},"“":{"ha":719,"x_min":83,"x_max":636,"o":"m 281 669 l 83 669 l 161 972 l 358 972 l 281 669 m 361 671 l 439 974 l 636 974 l 558 671 l 361 671 z "},"”":{"ha":719,"x_min":83,"x_max":636,"o":"m 281 669 l 83 669 l 161 972 l 358 972 l 281 669 m 361 671 l 439 974 l 636 974 l 558 671 l 361 671 z "},"„":{"ha":395,"x_min":41,"x_max":313,"o":"m 41 -47 q 85 9 69 -19 q 109 74 102 37 q 117 135 115 110 q 118 211 118 160 l 313 211 q 312 152 313 172 q 308 92 311 132 q 297 23 305 52 q 274 -43 288 -6 q 236 -116 260 -81 q 180 -183 212 -151 l 41 -47 z "},"†":{"ha":694,"x_min":83,"x_max":611,"o":"m 250 974 l 444 974 l 444 742 l 611 742 l 611 547 l 444 547 l 444 1 l 250 1 l 250 547 l 83 547 l 83 742 l 250 742 l 250 974 z "},"‡":{"ha":694,"x_min":83,"x_max":611,"o":"m 250 974 l 444 974 l 444 742 l 611 742 l 611 547 l 444 547 l 444 383 l 611 383 l 611 189 l 444 189 l 444 1 l 250 1 l 250 189 l 83 189 l 83 383 l 250 383 l 250 547 l 83 547 l 83 742 l 250 742 l 250 974 z "},"•":{"ha":817,"x_min":208,"x_max":608,"o":"m 408 277 q 267 336 326 277 q 208 482 208 395 q 267 619 208 562 q 408 676 326 676 q 550 620 492 676 q 608 482 608 563 q 551 336 608 395 q 408 277 493 277 z "},"…":{"ha":947,"x_min":83,"x_max":864,"o":"m 472 -11 q 394 23 427 -11 q 361 104 361 56 q 394 179 361 148 q 472 211 427 211 q 551 180 519 211 q 583 104 583 149 q 551 22 583 56 q 472 -11 519 -11 m 83 104 q 117 179 83 148 q 195 211 150 211 q 274 180 241 211 q 306 104 306 149 q 274 22 306 56 q 195 -11 241 -11 q 116 23 149 -11 q 83 104 83 56 m 642 104 q 675 179 642 148 q 753 211 708 211 q 832 180 800 211 q 864 104 864 149 q 832 22 864 56 q 753 -11 800 -11 q 674 23 707 -11 q 642 104 642 56 z "},"‹":{"ha":643,"x_min":83,"x_max":561,"o":"m 561 98 l 300 98 l 83 343 l 83 450 l 300 694 l 561 694 l 297 397 l 561 98 z "},"›":{"ha":643,"x_min":83,"x_max":559,"o":"m 83 98 l 346 397 l 83 694 l 343 694 l 559 450 l 559 343 l 343 98 l 83 98 z "},"€":{"ha":1065,"x_min":41,"x_max":982,"o":"m 982 79 q 661 -18 837 -18 q 402 63 507 -18 q 248 275 296 144 l 45 275 l 45 450 l 211 450 l 210 486 l 210 488 l 41 488 l 41 663 l 237 663 q 300 789 260 732 q 398 893 340 847 q 536 965 455 939 q 711 991 616 991 q 982 913 823 991 l 982 672 q 931 709 963 685 q 882 745 899 733 q 837 771 864 757 q 779 791 809 785 q 711 798 749 798 q 443 663 513 798 l 625 663 l 625 488 l 404 488 l 404 486 q 406 450 404 463 l 628 450 l 628 275 l 457 275 q 661 176 522 176 q 751 185 710 176 q 824 212 791 194 q 879 245 857 229 q 932 287 902 262 q 982 325 963 312 l 982 79 z "},"™":{"ha":1185,"x_min":83,"x_max":1103,"o":"m 471 972 l 471 875 l 325 875 l 325 486 l 228 486 l 228 875 l 83 875 l 83 972 l 471 972 m 558 486 l 558 972 l 667 972 l 832 642 l 991 972 l 1103 972 l 1103 486 l 1004 486 l 1004 794 l 880 542 l 882 541 l 772 541 l 647 793 l 647 486 l 558 486 z "},"−":{"ha":823,"x_min":139,"x_max":722,"o":"m 722 550 l 722 355 l 139 355 l 139 550 l 722 550 z "}}}
